<?xml version="1.0" encoding="utf-8"?>
<!-- Generator: Adobe Illustrator 16.0.4, SVG Export Plug-In . SVG Version: 6.00 Build 0)  -->
<!DOCTYPE svg PUBLIC "-//W3C//DTD SVG 1.1//EN" "http://www.w3.org/Graphics/SVG/1.1/DTD/svg11.dtd">
<svg version="1.1" id="Layer_1" xmlns="http://www.w3.org/2000/svg" xmlns:xlink="http://www.w3.org/1999/xlink" x="0px" y="0px"
	 width="112.32px" height="31.067px" viewBox="0 0 112.32 31.067" enable-background="new 0 0 112.32 31.067" xml:space="preserve">
<g>
	<defs>
		<rect id="SVGID_1_" y="0" width="112.32" height="31.068"/>
	</defs>
	<clipPath id="SVGID_2_">
		<use xlink:href="#SVGID_1_"  overflow="visible"/>
	</clipPath>
	<path clip-path="url(#SVGID_2_)" fill="#EB392C" d="M0,26.411c0.399-0.497,0.962-0.767,1.483-1.104
		c1.043-0.677,2.218-0.964,3.395-1.251c1.508-0.371,3.046-0.582,4.591-0.706c0.609-0.048,1.222-0.041,1.833-0.05
		c0.796-0.014,1.593-0.043,2.386-0.021c1.689,0.047,3.374,0.115,5.061,0.193c0.921,0.039,1.844,0.084,2.76,0.188
		c1.35,0.151,2.695,0.334,4.036,0.551c1.705,0.275,3.406,0.599,5.108,0.899c0.164,0.026,0.335,0.025,0.502,0.043
		c0.075,0.008,0.152,0.022,0.229,0.046c1.09,0.307,2.172,0.643,3.319,0.684c0.441,0.015,0.883,0.049,1.293,0.253
		c0.15,0.073,0.338,0.072,0.51,0.086c1.084,0.088,2.167,0.025,3.249-0.046c0.215-0.013,0.432-0.02,0.645-0.047
		c0.335-0.048,0.668-0.115,1.005-0.161c0.238-0.032,0.475-0.062,0.714-0.057c1.804,0.037,3.58-0.229,5.355-0.515
		c0.192-0.03,0.39-0.011,0.588-0.021c0.136-0.005,0.288,0.018,0.407-0.032c0.626-0.26,1.3-0.313,1.951-0.458
		c1.905-0.42,3.808-0.852,5.711-1.281c0.074-0.018,0.148-0.046,0.225-0.052c0.052-0.004,0.104,0.021,0.159,0.03
		c-0.028,0.053-0.043,0.131-0.085,0.151c-0.387,0.187-0.771,0.38-1.171,0.532c-0.327,0.128-0.675,0.206-1.014,0.305
		c-0.3,0.088-0.564,0.239-0.775,0.466c-0.255,0.269-0.562,0.447-0.902,0.569c-0.488,0.176-0.985,0.333-1.478,0.498
		c-0.243,0.081-0.253,0.082-0.184,0.326c0.042,0.137,0,0.226-0.111,0.304c-0.295,0.204-0.639,0.258-0.98,0.323
		c-0.329,0.062-0.658,0.125-0.981,0.213c-0.151,0.041-0.29,0.137-0.431,0.215c-0.04,0.024-0.058,0.082-0.089,0.122
		c0.045,0.022,0.088,0.046,0.132,0.067c0.031,0.014,0.063,0.029,0.122,0.056c-0.064,0.078-0.109,0.159-0.174,0.207
		c-0.116,0.084-0.238,0.167-0.37,0.218c-0.875,0.336-1.752,0.668-2.631,0.992c-0.381,0.142-0.767,0.281-1.189,0.225
		c-0.057-0.008-0.121,0.005-0.176,0.026c-0.382,0.149-0.779,0.167-1.182,0.16c-0.189-0.002-0.379,0.041-0.566,0.072
		c-0.696,0.118-1.387,0.256-2.088,0.355c-0.489,0.07-0.986,0.104-1.48,0.125c-0.411,0.018-0.827-0.012-1.239-0.012
		c-0.099,0-0.212,0.012-0.293,0.06c-0.314,0.187-0.653,0.185-0.994,0.163c-0.579-0.035-1.158-0.097-1.737-0.11
		c-0.283-0.007-0.57,0.055-0.845,0.122c-0.262,0.063-0.492,0.059-0.747-0.049c-0.224-0.096-0.485-0.134-0.733-0.149
		c-0.77-0.049-1.541-0.078-2.312-0.114c-0.514-0.021-1.027-0.049-1.54-0.06c-0.412-0.004-0.826,0.024-1.238,0.024
		c-0.259-0.002-0.507-0.05-0.736-0.195c-0.103-0.066-0.252-0.087-0.378-0.085c-0.568,0.007-1.135,0.038-1.703,0.046
		c-0.465,0.006-0.931-0.005-1.396-0.016c-0.075-0.001-0.161-0.022-0.221-0.065c-0.331-0.226-0.692-0.191-1.057-0.125
		c-0.248,0.045-0.491,0.105-0.741,0.125c-0.2,0.014-0.404-0.027-0.603-0.044c-0.053-0.004-0.106-0.024-0.158-0.021
		c-0.71,0.055-1.42,0.11-2.131,0.166c-1.64,0.132-3.255,0.395-4.807,0.957c-0.237,0.087-0.464,0.196-0.7,0.283
		c-0.275,0.101-0.428,0.075-0.599-0.16c-0.249-0.337-0.572-0.454-0.98-0.444c-0.292,0.007-0.587-0.021-0.877-0.058
		c-0.314-0.042-0.555-0.198-0.662-0.524c-0.024-0.078-0.107-0.163-0.186-0.194c-0.893-0.347-1.794-0.663-2.756-0.773
		c-0.346-0.037-0.337-0.048-0.415-0.38c-0.023-0.088-0.097-0.191-0.177-0.238c-0.48-0.281-1.021-0.354-1.561-0.436
		c-0.49-0.074-0.976-0.178-1.46-0.279c-0.095-0.02-0.203-0.068-0.267-0.139c-0.334-0.355-0.776-0.447-1.224-0.542
		C0.825,26.757,0.414,26.651,0,26.556V26.411z"/>
	<path clip-path="url(#SVGID_2_)" fill="#FFFFFF" d="M64.013,0c0.135,0.251,0.271,0.499,0.404,0.752
		c0.093,0.174,0.173,0.354,0.265,0.526c0.076,0.143,0.045,0.216-0.107,0.284c-1.011,0.461-2.011,0.946-3.029,1.393
		C60.528,3.4,59.503,3.829,58.47,4.233c-0.504,0.198-0.398,0.173-0.714-0.214c-0.068-0.084-0.127-0.176-0.181-0.269
		c-0.133-0.236-0.123-0.309,0.112-0.444c0.722-0.421,1.44-0.854,2.179-1.245C61.203,1.359,62.558,0.685,63.903,0H64.013z"/>
	<path clip-path="url(#SVGID_2_)" fill="#FFFFFF" d="M74.307,21.188c0.277-3.162,0.465-6.314,1.025-9.447
		c-0.219,0.215-0.433,0.429-0.652,0.632c-1.073,0.986-2.142,1.978-3.227,2.95c-0.491,0.44-0.521,0.44-1.044,0.03
		c-0.586-0.462-1.161-0.94-1.703-1.448c-0.276-0.262-0.475-0.605-0.708-0.908c-0.172,2.604-0.422,5.238-0.436,7.936
		c-0.485,0.029-0.979,0.058-1.47,0.084c-0.116,0.008-0.108-0.084-0.111-0.162c-0.025-0.69-0.063-1.379-0.07-2.07
		c-0.018-1.5-0.043-3-0.022-4.5c0.022-1.88,0.108-3.758,0.387-5.62c0.104-0.707,0.246-1.407,0.496-2.081
		c0.114-0.306,0.274-0.57,0.526-0.791c0.854-0.747,1.797-1.344,2.884-1.703c0.065-0.021,0.136-0.04,0.228-0.066
		c0.664,2.709,1.082,5.44,1.38,8.234c0.314-0.31,0.609-0.593,0.897-0.884c1.602-1.632,2.955-3.471,4.382-5.248
		c0.108-0.135,0.213-0.184,0.379-0.146c0.346,0.085,0.703,0.141,1.044,0.244c0.289,0.084,0.45,0.279,0.489,0.609
		c0.171,1.434,0.395,2.863,0.548,4.299c0.121,1.142,0.195,2.289,0.233,3.437c0.029,0.949-0.007,1.903-0.048,2.853
		c-0.02,0.436-0.125,0.872-0.199,1.303c-0.015,0.074-0.063,0.158-0.123,0.205c-1.451,1.161-3.07,1.972-4.928,2.26
		C74.423,21.194,74.382,21.188,74.307,21.188"/>
	<path clip-path="url(#SVGID_2_)" fill="#FFFFFF" d="M48.756,15.748c0.29-0.734,0.593-1.466,0.869-2.205
		c0.88-2.363,1.555-4.783,2.048-7.255c0.013-0.061,0.034-0.137,0.077-0.169c0.368-0.273,0.743-0.54,1.154-0.835
		c-0.013,0.179-0.02,0.316-0.034,0.453c-0.291,2.81-0.635,5.613-1.148,8.392c-0.291,1.566-0.611,3.129-1.179,4.629
		c-0.031,0.082-0.073,0.161-0.097,0.246c-0.135,0.47-0.436,0.761-0.908,0.891c-0.414,0.113-0.823,0.245-1.235,0.366
		c-0.112,0.035-0.191,0.011-0.261-0.106c-1.229-2.072-2.455-4.141-3.533-6.297c-0.23-0.461-0.422-0.941-0.628-1.4
		c-0.076,0.303-0.156,0.637-0.243,0.971c-0.481,1.859-0.974,3.716-1.689,5.503c-0.137,0.342-0.315,0.667-0.47,1.003
		c-0.055,0.109-0.123,0.135-0.245,0.095c-0.624-0.206-1.097-0.613-1.537-1.081c-0.2-0.213-0.287-0.438-0.277-0.734
		c0.056-1.582,0.066-3.164,0.156-4.745c0.104-1.794,0.328-3.576,0.779-5.324c0.204-0.785,0.452-1.553,0.867-2.257
		c0.143-0.245,0.326-0.47,0.502-0.695c0.033-0.043,0.126-0.078,0.18-0.065c1.33,0.342,2.601,0.816,3.711,1.645
		c0.153,0.115,0.293,0.246,0.436,0.372c0.212,0.197,0.358,0.427,0.442,0.716c0.677,2.379,1.368,4.754,2.052,7.13
		c0.07,0.245,0.112,0.499,0.166,0.748C48.727,15.743,48.741,15.746,48.756,15.748"/>
	<path clip-path="url(#SVGID_2_)" fill="#FFFFFF" d="M59.01,7.462c-0.019-0.003-0.041-0.006-0.059-0.008
		c-0.052,0.049-0.114,0.09-0.155,0.147c-0.223,0.321-0.471,0.631-0.66,0.974c-0.74,1.351-1.227,2.809-1.69,4.273
		c-0.034,0.114,0,0.187,0.114,0.22c0.062,0.019,0.128,0.035,0.19,0.042c0.862,0.089,1.707-0.013,2.544-0.208
		c0.122-0.028,0.161-0.089,0.157-0.212c-0.017-0.422-0.013-0.845-0.041-1.266c-0.068-1.038-0.14-2.076-0.229-3.114
		C59.158,8.026,59.07,7.745,59.01,7.462 M63.562,12.233c0.46-0.031,0.896-0.061,1.347-0.091c0,0.247,0.008,0.477,0,0.705
		c-0.031,0.666-0.072,1.331-0.092,1.998c-0.005,0.141-0.062,0.182-0.182,0.205c-0.38,0.082-0.759,0.171-1.137,0.249
		c-0.102,0.023-0.138,0.067-0.134,0.169c0.05,1.118,0.085,2.237,0.144,3.354c0.014,0.235-0.052,0.39-0.248,0.518
		c-0.541,0.364-1.136,0.611-1.749,0.816c-0.584,0.193-1.177,0.354-1.768,0.529c-0.044,0.014-0.092,0.016-0.15,0.024
		c0-0.255,0.002-0.497-0.001-0.739c-0.013-1.092-0.018-2.188-0.05-3.282c-0.012-0.49-0.036-0.499-0.528-0.488
		c-1.028,0.018-2.059,0.043-3.086,0.071c-0.183,0.006-0.369,0.03-0.552,0.068c-0.062,0.015-0.144,0.087-0.161,0.151
		c-0.362,1.255-0.705,2.519-0.89,3.816c-0.026,0.182-0.033,0.366-0.046,0.541h-1.61c0.263-1.668,0.478-3.31,1.033-4.895
		c-0.131-0.026-0.259-0.059-0.388-0.071c-0.118-0.01-0.133-0.072-0.122-0.168c0.098-0.816,0.189-1.631,0.293-2.445
		c0.004-0.047,0.082-0.111,0.131-0.12c0.197-0.023,0.392-0.038,0.592-0.038c0.159,0,0.23-0.058,0.284-0.219
		c0.432-1.284,0.862-2.569,1.331-3.842c0.207-0.561,0.497-1.093,0.763-1.63c0.243-0.491,0.646-0.837,1.068-1.165
		c1.331-1.026,2.826-1.656,4.5-1.858c0.147-0.018,0.301-0.015,0.446-0.041c0.191-0.036,0.278,0.052,0.341,0.221
		c0.217,0.61,0.313,1.245,0.391,1.883c0.171,1.423,0.229,2.858,0.23,4.291C63.562,11.238,63.562,11.724,63.562,12.233"/>
	<path clip-path="url(#SVGID_2_)" fill="#FFFFFF" d="M106.412,7.414c-0.087,0.066-0.123,0.082-0.141,0.11
		c-0.269,0.386-0.57,0.753-0.794,1.162c-0.71,1.316-1.179,2.73-1.626,4.149c-0.042,0.13-0.004,0.208,0.127,0.24
		c0.059,0.013,0.118,0.029,0.178,0.036c0.841,0.089,1.668-0.016,2.492-0.193c0.156-0.033,0.212-0.1,0.203-0.263
		c-0.08-1.355-0.142-2.71-0.231-4.063C106.593,8.211,106.489,7.835,106.412,7.414 M107.019,20.703c0-0.552,0.013-1.087-0.002-1.62
		c-0.024-0.863-0.058-1.723-0.103-2.584c-0.016-0.297-0.042-0.307-0.337-0.3c-1.083,0.021-2.165,0.044-3.249,0.072
		c-0.189,0.006-0.381,0.034-0.568,0.07c-0.054,0.012-0.127,0.076-0.142,0.132c-0.384,1.354-0.769,2.711-0.924,4.118
		c-0.009,0.087-0.013,0.176-0.02,0.261h-1.602c0.256-1.665,0.474-3.306,1.027-4.897c-0.117-0.023-0.236-0.06-0.358-0.066
		c-0.137-0.011-0.165-0.075-0.149-0.197c0.057-0.443,0.104-0.887,0.156-1.33c0.043-0.354,0.091-0.709,0.126-1.063
		c0.011-0.115,0.052-0.155,0.164-0.157c0.198-0.004,0.394-0.031,0.592-0.032c0.153,0,0.213-0.067,0.258-0.209
		c0.441-1.477,0.924-2.94,1.538-4.355c0.132-0.3,0.284-0.59,0.421-0.887c0.348-0.751,0.962-1.252,1.618-1.708
		c1.232-0.85,2.591-1.376,4.08-1.554c0.179-0.019,0.359-0.023,0.537-0.043c0.114-0.012,0.188,0.032,0.215,0.137
		c0.113,0.425,0.252,0.844,0.328,1.275c0.202,1.145,0.275,2.303,0.302,3.463c0.023,0.937,0.025,1.87,0.038,2.805
		c0,0.059,0.006,0.117,0.009,0.198c0.451-0.03,0.889-0.059,1.344-0.09c0,0.175,0.005,0.327-0.002,0.481
		c-0.03,0.748-0.07,1.497-0.099,2.246c-0.005,0.13-0.072,0.159-0.172,0.181c-0.382,0.083-0.758,0.173-1.139,0.249
		c-0.111,0.021-0.147,0.061-0.141,0.175c0.051,1.16,0.094,2.319,0.146,3.479c0.006,0.134-0.031,0.237-0.144,0.301
		c-0.38,0.213-0.744,0.47-1.147,0.619c-0.823,0.304-1.667,0.551-2.502,0.817C107.086,20.703,107.05,20.701,107.019,20.703"/>
	<path clip-path="url(#SVGID_2_)" fill="#FFFFFF" d="M17.875,16.2c0.05-0.025,0.089-0.041,0.123-0.062
		c1.292-0.788,2.489-1.692,3.526-2.796c0.606-0.65,1.134-1.354,1.489-2.171c0.146-0.335,0.179-0.68,0.092-1.03
		c-0.134-0.529-0.458-0.94-0.851-1.297c-0.905-0.825-1.976-1.372-3.115-1.799C19.071,7.017,19,6.996,18.917,6.967
		C18.592,10.062,18.336,13.134,17.875,16.2 M14.507,17.905c0.11-0.087,0.211-0.161,0.306-0.243c0.242-0.216,0.238-0.523,0.269-0.808
		c0.163-1.444,0.321-2.886,0.466-4.33c0.147-1.462,0.275-2.926,0.41-4.387c0.096-1.048,0.194-2.098,0.283-3.146
		c0.01-0.117,0.054-0.193,0.175-0.209c0.355-0.05,0.71-0.089,1.066-0.142c0.816-0.123,1.555,0.178,2.299,0.432
		c1.281,0.438,2.469,1.054,3.585,1.819c1.309,0.898,2.156,2.118,2.581,3.623c0.185,0.649,0.322,1.317,0.423,1.987
		c0.105,0.677-0.086,1.317-0.406,1.924c-0.614,1.156-1.502,2.073-2.55,2.837c-1.997,1.459-4.186,2.556-6.521,3.369
		c-0.096,0.034-0.172,0.05-0.25-0.047c-0.697-0.873-1.396-1.74-2.095-2.611C14.535,17.955,14.525,17.936,14.507,17.905"/>
	<path clip-path="url(#SVGID_2_)" fill="#FFFFFF" d="M14.027,4.426c-0.028,0.313-0.054,0.603-0.083,0.892
		c-0.029,0.307-0.074,0.615-0.093,0.923c-0.006,0.135-0.064,0.165-0.181,0.182c-0.615,0.083-1.233,0.165-1.844,0.268
		c-0.881,0.146-1.754,0.32-2.59,0.639C9.179,7.353,9.128,7.378,9.071,7.401C8.704,7.54,8.487,7.766,8.435,8.19
		c-0.083,0.67-0.24,1.334-0.366,1.999c-0.009,0.049-0.006,0.102-0.01,0.181c0.332-0.034,0.645-0.066,0.957-0.096
		c1.313-0.136,2.623-0.239,3.943-0.195c0.286,0.01,0.568,0.069,0.853,0.102c0.108,0.014,0.155,0.061,0.143,0.179
		c-0.031,0.36-0.044,0.723-0.085,1.084c-0.008,0.053-0.102,0.124-0.164,0.138c-1.218,0.292-2.415,0.643-3.574,1.115
		c-0.738,0.299-1.45,0.648-2.098,1.117c-0.312,0.223-0.524,0.468-0.532,0.883c-0.01,0.389-0.099,0.777-0.157,1.205
		c2.176-0.227,4.343-0.359,6.401-1.254c-0.064,0.326-0.115,0.645-0.191,0.96c-0.335,1.369-0.89,2.635-1.752,3.76
		c-0.065,0.082-0.168,0.155-0.265,0.189c-1.181,0.392-2.392,0.63-3.621,0.791c-1.255,0.166-2.517,0.199-3.78,0.162
		c-0.472-0.012-0.474-0.017-0.448-0.487c0.065-1.104,0.108-2.209,0.193-3.312c0.209-2.65,0.497-5.295,1.113-7.889
		c0.245-1.038,0.55-2.056,1.048-3.01c0.117-0.229,0.275-0.353,0.528-0.42c1.684-0.445,3.384-0.812,5.121-0.95
		c0.69-0.058,1.388-0.035,2.082-0.043C13.851,4.397,13.927,4.414,14.027,4.426"/>
	<path clip-path="url(#SVGID_2_)" fill="#FFFFFF" d="M32.292,5.009c-0.148,0.695-0.289,1.334-0.423,1.973
		c-0.393,1.904-0.76,3.816-0.973,5.749c-0.1,0.883-0.133,1.778-0.149,2.67c-0.009,0.36,0.107,0.724,0.176,1.082
		c0.022,0.124,0.116,0.181,0.243,0.206c0.792,0.159,1.526,0.088,2.117-0.537c0.236-0.251,0.471-0.506,0.704-0.765
		c1.885-2.091,3.054-4.532,3.565-7.287c0.095-0.519,0.155-1.047,0.219-1.57c0.018-0.141,0.068-0.207,0.208-0.236
		c0.366-0.073,0.724-0.162,1.085-0.244c0.052-0.012,0.104-0.013,0.183-0.023c0.027,0.324,0.066,0.628,0.074,0.936
		c0.14,4.551-1.318,8.566-4.112,12.139c-0.289,0.371-0.605,0.543-1.068,0.585c-1.911,0.175-3.741-0.048-5.412-1.055
		c-0.349-0.207-0.667-0.464-0.988-0.713c-0.087-0.068-0.155-0.19-0.178-0.299c-0.106-0.487-0.25-0.975-0.277-1.468
		c-0.068-1.193-0.115-2.392-0.104-3.585c0.015-1.804,0.119-3.604,0.494-5.376c0.087-0.42,0.219-0.828,0.344-1.235
		c0.021-0.072,0.104-0.15,0.173-0.176c1-0.353,2.014-0.654,3.073-0.766C31.595,4.981,31.931,5.009,32.292,5.009"/>
	<path clip-path="url(#SVGID_2_)" fill="#FFFFFF" d="M98.477,5.318V6.51c0,0.323,0,0.32-0.309,0.425
		c-2.182,0.748-4.233,1.741-6.052,3.168c-0.944,0.742-1.775,1.588-2.376,2.629c-0.158,0.27-0.273,0.571-0.352,0.87
		c-0.127,0.462,0.054,0.862,0.454,1.129c0.377,0.251,0.808,0.359,1.249,0.414c1.191,0.152,2.372,0.083,3.554-0.119
		c1.449-0.249,2.903-0.471,4.355-0.703c0.401-0.065,0.802-0.131,1.205-0.194c0.056-0.01,0.114-0.011,0.203-0.021
		c-0.07,0.231-0.127,0.435-0.194,0.637c-0.443,1.374-0.961,2.718-1.731,3.945c-0.251,0.404-0.565,0.769-0.86,1.144
		c-0.115,0.143-0.255,0.246-0.465,0.258c-0.961,0.053-1.923,0.141-2.885,0.18c-1.032,0.042-2.069,0.061-3.106,0.055
		c-0.493-0.001-0.989-0.074-1.48-0.133c-0.605-0.071-1.032-0.443-1.413-0.877c-0.572-0.653-0.879-1.438-1.078-2.269
		c-0.184-0.765-0.267-1.546-0.286-2.333c-0.038-1.478,0.454-2.759,1.465-3.854c1.423-1.536,3.003-2.874,4.885-3.819
		c0.577-0.29,1.203-0.494,1.821-0.695c1.04-0.341,2.089-0.648,3.135-0.967C98.287,5.356,98.363,5.344,98.477,5.318"/>
	<path clip-path="url(#SVGID_2_)" fill="#FFFFFF" d="M81.408,11.779c0.023-1.216,0.023-2.257,0.072-3.297
		c0.031-0.675,0.135-1.349,0.206-2.021c0.003-0.036,0.022-0.069,0.027-0.101c0.029-0.217,0.148-0.303,0.367-0.332
		c1.187-0.164,2.352-0.059,3.504,0.235c0.226,0.058,0.447,0.132,0.673,0.194c0.108,0.028,0.16,0.078,0.16,0.194
		c0.01,0.732,0.03,1.463,0.031,2.193c0.004,1.709-0.359,3.369-0.709,5.026c-0.45,2.14-0.942,4.272-1.414,6.407
		c-0.035,0.167-0.103,0.234-0.277,0.252c-0.994,0.09-1.744-0.35-2.381-1.049c-0.036-0.043-0.047-0.119-0.05-0.18
		c-0.029-0.745-0.063-1.488-0.083-2.23C81.488,15.25,81.449,13.427,81.408,11.779"/>
</g>
</svg>
