<svg xmlns="http://www.w3.org/2000/svg" xmlns:xlink="http://www.w3.org/1999/xlink" width="252" height="246" viewBox="0 0 252 246">
  <defs>
    <clipPath id="clip-path">
      <rect id="crop" width="252" height="246" rx="123" transform="translate(0 914.277)" fill="none"/>
    </clipPath>
    <clipPath id="clip-path-2">
      <path id="Path_2527" data-name="Path 2527" d="M222.763,1020.534l15.284,15.089a117.178,117.178,0,0,0-3.862-26.364Z" fill="none"/>
    </clipPath>
    <clipPath id="clip-path-3">
      <path id="Path_2536" data-name="Path 2536" d="M191.928,990.094l31.9,31.494,10.788-10.65A117.425,117.425,0,0,0,214.1,968.2Z" fill="none"/>
    </clipPath>
    <clipPath id="clip-path-4">
      <path id="Path_2548" data-name="Path 2548" d="M161.089,959.654l31.9,31.492,22.017-21.734a118.717,118.717,0,0,0-31.915-29.584q-.588-.373-1.176-.735Z" fill="none"/>
    </clipPath>
    <clipPath id="clip-path-5">
      <path id="Path_2557" data-name="Path 2557" d="M130.253,929.212l31.9,31.492,21.065-20.795-.128-.082a120.173,120.173,0,0,0-46.059-17.309Z" fill="none"/>
    </clipPath>
    <clipPath id="clip-path-6">
      <path id="Path_2559" data-name="Path 2559" d="M131.32,930.264l7.544-7.45a120.576,120.576,0,0,0-16.772-1.659Z" fill="none"/>
    </clipPath>
    <clipPath id="clip-path-7">
      <path id="Path_2561" data-name="Path 2561" d="M222.762,1081.417l5.275,5.207a116.506,116.506,0,0,0,5.816-16.156Z" fill="none"/>
    </clipPath>
    <clipPath id="clip-path-8">
      <path id="Path_2574" data-name="Path 2574" d="M191.926,1050.975l31.9,31.494,9.159-9.041a116.211,116.211,0,0,0,4.972-40l-14.13-13.949Z" fill="none"/>
    </clipPath>
    <clipPath id="clip-path-9">
      <rect id="Rectangle_110" data-name="Rectangle 110" width="45.119" height="44.538" transform="matrix(0.707, -0.707, 0.707, 0.707, 161.088, 1020.535)" fill="none"/>
    </clipPath>
    <clipPath id="clip-path-10">
      <rect id="Rectangle_111" data-name="Rectangle 111" width="45.119" height="44.538" transform="matrix(0.707, -0.707, 0.707, 0.707, 130.252, 990.096)" fill="none"/>
    </clipPath>
    <clipPath id="clip-path-11">
      <rect id="Rectangle_112" data-name="Rectangle 112" width="45.118" height="44.538" transform="translate(99.416 959.654) rotate(-45.001)" fill="none"/>
    </clipPath>
    <clipPath id="clip-path-12">
      <path id="Path_2623" data-name="Path 2623" d="M70.438,931.047l30.043,29.659,31.9-31.5-8.076-7.971q-2.858-.139-5.715-.135a121.563,121.563,0,0,0-48.155,9.943" fill="none"/>
    </clipPath>
    <clipPath id="clip-path-13">
      <path id="Path_2625" data-name="Path 2625" d="M183.093,939.828C127.5,904.6,53.507,920.533,17.823,975.412S-1.723,1103.334,53.869,1138.56s129.586,19.295,165.271-35.583,19.546-127.923-36.046-163.149" fill="none"/>
    </clipPath>
    <clipPath id="clip-path-14">
      <rect id="Rectangle_113" data-name="Rectangle 113" width="253.272" height="235.139" transform="translate(-1.771 920.936)" fill="none"/>
    </clipPath>
    <clipPath id="clip-path-15">
      <path id="Path_2633" data-name="Path 2633" d="M191.925,1111.86l11.069,10.927a119.2,119.2,0,0,0,25.688-37.631l-4.853-4.791Z" fill="none"/>
    </clipPath>
    <clipPath id="clip-path-16">
      <rect id="Rectangle_114" data-name="Rectangle 114" width="45.118" height="44.538" transform="matrix(0.707, -0.707, 0.707, 0.707, 161.088, 1081.418)" fill="none"/>
    </clipPath>
    <clipPath id="clip-path-17">
      <rect id="Rectangle_115" data-name="Rectangle 115" width="45.119" height="44.538" transform="translate(130.251 1050.977) rotate(-44.999)" fill="none"/>
    </clipPath>
    <clipPath id="clip-path-18">
      <rect id="Rectangle_116" data-name="Rectangle 116" width="45.12" height="44.538" transform="translate(99.414 1020.537) rotate(-45)" fill="none"/>
    </clipPath>
    <clipPath id="clip-path-19">
      <rect id="Rectangle_117" data-name="Rectangle 117" width="45.119" height="44.538" transform="translate(68.578 990.096) rotate(-45)" fill="none"/>
    </clipPath>
    <clipPath id="clip-path-20">
      <path id="Path_2699" data-name="Path 2699" d="M63.329,934.4l-25.588,25.26,31.9,31.492,31.9-31.494L71.929,930.414q-4.373,1.819-8.6,3.981" fill="none"/>
    </clipPath>
    <clipPath id="clip-path-21">
      <path id="Path_2706" data-name="Path 2706" d="M33.8,955.766l5.005,4.941,28.731-28.363A118.889,118.889,0,0,0,33.8,955.766" fill="none"/>
    </clipPath>
    <clipPath id="clip-path-22">
      <path id="Path_2713" data-name="Path 2713" d="M161.087,1142.3l5.207,5.14a118.989,118.989,0,0,0,37.759-25.714l-11.063-10.921Z" fill="none"/>
    </clipPath>
    <clipPath id="clip-path-23">
      <rect id="Rectangle_118" data-name="Rectangle 118" width="45.119" height="44.539" transform="translate(130.249 1111.86) rotate(-45)" fill="none"/>
    </clipPath>
    <clipPath id="clip-path-24">
      <rect id="Rectangle_119" data-name="Rectangle 119" width="45.118" height="44.538" transform="matrix(0.707, -0.707, 0.707, 0.707, 99.414, 1081.42)" fill="none"/>
    </clipPath>
    <clipPath id="clip-path-25">
      <rect id="Rectangle_120" data-name="Rectangle 120" width="45.119" height="44.538" transform="translate(68.576 1050.979) rotate(-45)" fill="none"/>
    </clipPath>
    <clipPath id="clip-path-26">
      <rect id="Rectangle_121" data-name="Rectangle 121" width="45.12" height="44.539" transform="translate(37.739 1020.538) rotate(-45)" fill="none"/>
    </clipPath>
    <clipPath id="clip-path-27">
      <path id="Path_2779" data-name="Path 2779" d="M12.353,984.717q-1.9,3.6-3.529,7.274l29.983,29.6,31.9-31.5L38.806,958.6Z" fill="none"/>
    </clipPath>
    <clipPath id="clip-path-28">
      <path id="Path_2786" data-name="Path 2786" d="M17.823,975.412A118.769,118.769,0,0,0,10.248,988.9l29.624-29.245-5-4.936a118.734,118.734,0,0,0-17.051,20.694" fill="none"/>
    </clipPath>
    <clipPath id="clip-path-29">
      <path id="Path_2790" data-name="Path 2790" d="M150.207,1153.042a120.771,120.771,0,0,0,17.563-6.248l-5.617-5.545Z" fill="none"/>
    </clipPath>
    <clipPath id="clip-path-30">
      <path id="Path_2803" data-name="Path 2803" d="M99.412,1142.3l13.953,13.774h22.109a121.816,121.816,0,0,0,17.728-3.886l10.018-9.889-31.9-31.494Z" fill="none"/>
    </clipPath>
    <clipPath id="clip-path-31">
      <rect id="Rectangle_122" data-name="Rectangle 122" width="45.119" height="44.537" transform="translate(68.576 1111.861) rotate(-45)" fill="none"/>
    </clipPath>
    <clipPath id="clip-path-32">
      <rect id="Rectangle_123" data-name="Rectangle 123" width="45.119" height="44.538" transform="translate(37.739 1081.42) rotate(-44.999)" fill="none"/>
    </clipPath>
    <clipPath id="clip-path-33">
      <rect id="Rectangle_124" data-name="Rectangle 124" width="45.119" height="44.538" transform="translate(6.902 1050.981) rotate(-45.001)" fill="none"/>
    </clipPath>
    <clipPath id="clip-path-34">
      <path id="Path_2852" data-name="Path 2852" d="M4.523,1003.229v45.4l3.446,3.4,31.9-31.5-30.39-30a116.354,116.354,0,0,0-4.958,12.692" fill="none"/>
    </clipPath>
    <clipPath id="clip-path-35">
      <path id="Path_2855" data-name="Path 2855" d="M4.523,994.551,9.035,990.1l-4.512-4.456Z" fill="none"/>
    </clipPath>
    <clipPath id="clip-path-38">
      <path id="Path_2859" data-name="Path 2859" d="M88.131,1153.438a120.072,120.072,0,0,0,13.17,2.637h14.2l-15.018-14.826Z" fill="none"/>
    </clipPath>
    <clipPath id="clip-path-39">
      <path id="Path_2868" data-name="Path 2868" d="M46.587,1133.567q3.519,2.607,7.282,4.993a120.306,120.306,0,0,0,35.962,15.3l11.714-11.564-31.9-31.494Z" fill="none"/>
    </clipPath>
    <clipPath id="clip-path-40">
      <path id="Path_2880" data-name="Path 2880" d="M17.057,1101.837a117.946,117.946,0,0,0,30.754,32.626l22.9-22.6-31.9-31.494Z" fill="none"/>
    </clipPath>
    <clipPath id="clip-path-41">
      <path id="Path_2889" data-name="Path 2889" d="M4.523,1053.33v21.743a117.371,117.371,0,0,0,13.362,28.053l21.986-21.706-31.9-31.492Z" fill="none"/>
    </clipPath>
    <clipPath id="clip-path-42">
      <path id="Path_2891" data-name="Path 2891" d="M4.523,1055.433l4.511-4.454-4.511-4.453Z" fill="none"/>
    </clipPath>
  </defs>
  <g id="Vector_Smart_Object" data-name="Vector Smart Object" transform="translate(0 -914.277)" clip-path="url(#clip-path)">
    <g id="Group_448" data-name="Group 448">
      <path id="Path_2522" data-name="Path 2522" d="M216.043,1101.66c-31.332,24.5-80.29,14.991-109.353-21.234S79.466,994.98,110.8,970.483s80.292-14.991,109.353,21.232,27.224,85.448-4.108,109.944" fill="#f5910b"/>
      <path id="Path_2523" data-name="Path 2523" d="M215.106,1100.493a45.662,45.662,0,0,0,15.849-24.408c2.48-9.41,1.863-19.164-.2-28.04a114.888,114.888,0,0,0-9.225-24.877,103.807,103.807,0,0,0-14.013-21.576,107.828,107.828,0,0,0-18.717-17.438,78.5,78.5,0,0,0-22.74-11.477,71.805,71.805,0,0,0-25.151-2.838,65.423,65.423,0,0,0-12.7,2.04,55.578,55.578,0,0,0-12.287,4.992,49.969,49.969,0,0,0-10.877,8.285,47.591,47.591,0,0,0-8.237,11.306,53.366,53.366,0,0,0-5.9,27.642,60.381,60.381,0,0,0,8.494,27.017c4.7,8.193,10.871,15.18,17.147,21.6a175.991,175.991,0,0,0,20.156,17.262,139.79,139.79,0,0,0,23.007,13.934A72.407,72.407,0,0,0,173,1108.7a53.964,53.964,0,0,0,14.449,1.674,45.889,45.889,0,0,0,27.653-9.88m1.872,2.333a97.218,97.218,0,0,1-28.124,14.952,94.236,94.236,0,0,1-16.3,3.914,84.053,84.053,0,0,1-17.274.7,74.46,74.46,0,0,1-33.322-10.382,79.784,79.784,0,0,1-25.128-23.877,91.062,91.062,0,0,1-13.045-31.339,126.83,126.83,0,0,1-2.582-32.678,101.351,101.351,0,0,1,6.321-31.7A79.888,79.888,0,0,1,105.673,964.1a69.584,69.584,0,0,1,30.786-17.8c11.791-3.246,24.3-3.2,36.167-.994a99.078,99.078,0,0,1,60.155,36.542,97.221,97.221,0,0,1,16.182,31.36,76.68,76.68,0,0,1,1.851,34.818,87.128,87.128,0,0,1-12.424,31.3,92.514,92.514,0,0,1-21.412,23.5" fill="#f5910b"/>
    </g>
    <g id="Group_450" data-name="Group 450">
      <g id="Group_449" data-name="Group 449" clip-path="url(#clip-path-2)">
        <path id="Path_2524" data-name="Path 2524" d="M240.31,1018.959a2.277,2.277,0,0,0-3.19,0,2.208,2.208,0,0,0,0,3.152,2.277,2.277,0,0,0,3.193,0,2.206,2.206,0,0,0,0-3.149" fill="#353536"/>
        <path id="Path_2525" data-name="Path 2525" d="M224.357,1018.961a2.276,2.276,0,0,0-3.189,0,2.2,2.2,0,0,0,0,3.148,2.276,2.276,0,0,0,3.19,0,2.206,2.206,0,0,0,0-3.149" fill="#353536"/>
        <path id="Path_2526" data-name="Path 2526" d="M240.31,1034.708a2.279,2.279,0,0,0-3.192,0,2.206,2.206,0,0,0,0,3.149,2.276,2.276,0,0,0,3.19,0,2.206,2.206,0,0,0,0-3.148" fill="#353536"/>
      </g>
    </g>
    <g id="Group_452" data-name="Group 452">
      <g id="Group_451" data-name="Group 451" clip-path="url(#clip-path-3)">
        <path id="Path_2528" data-name="Path 2528" d="M209.476,972.769a2.282,2.282,0,0,0-3.193,0,2.207,2.207,0,0,0,0,3.149,2.274,2.274,0,0,0,3.19,0,2.213,2.213,0,0,0,0-3.154" fill="#353536"/>
        <path id="Path_2529" data-name="Path 2529" d="M225.427,988.518a2.281,2.281,0,0,0-3.193,0,2.207,2.207,0,0,0,0,3.149,2.276,2.276,0,0,0,3.19,0,2.208,2.208,0,0,0,0-3.151" fill="#353536"/>
        <path id="Path_2530" data-name="Path 2530" d="M225.426,972.771a2.277,2.277,0,0,0-3.19,0,2.208,2.208,0,0,0,0,3.152,2.277,2.277,0,0,0,3.193,0,2.206,2.206,0,0,0,0-3.149" fill="#353536"/>
        <path id="Path_2531" data-name="Path 2531" d="M225.426,1004.266a2.277,2.277,0,0,0-3.19,0,2.208,2.208,0,0,0,0,3.152,2.275,2.275,0,0,0,3.192,0,2.2,2.2,0,0,0,0-3.148" fill="#353536"/>
        <path id="Path_2532" data-name="Path 2532" d="M209.474,988.518a2.277,2.277,0,0,0-3.19,0,2.207,2.207,0,0,0,0,3.151,2.276,2.276,0,0,0,3.193,0,2.208,2.208,0,0,0,0-3.151" fill="#353536"/>
        <path id="Path_2533" data-name="Path 2533" d="M193.521,988.519a2.275,2.275,0,0,0-3.189,0,2.2,2.2,0,0,0,0,3.148,2.276,2.276,0,0,0,3.19,0,2.206,2.206,0,0,0,0-3.149" fill="#353536"/>
        <path id="Path_2534" data-name="Path 2534" d="M209.473,1004.266a2.277,2.277,0,0,0-3.19,0,2.206,2.206,0,0,0,0,3.149,2.274,2.274,0,0,0,3.189,0,2.2,2.2,0,0,0,0-3.148" fill="#353536"/>
        <path id="Path_2535" data-name="Path 2535" d="M225.423,1020.013a2.276,2.276,0,0,0-3.189,0,2.206,2.206,0,0,0,0,3.148,2.276,2.276,0,0,0,3.19,0,2.206,2.206,0,0,0,0-3.149" fill="#353536"/>
      </g>
    </g>
    <g id="Group_454" data-name="Group 454">
      <g id="Group_453" data-name="Group 453" clip-path="url(#clip-path-4)">
        <path id="Path_2537" data-name="Path 2537" d="M210.54,942.332a2.277,2.277,0,0,0-3.19,0,2.206,2.206,0,0,0,0,3.149,2.274,2.274,0,0,0,3.189,0,2.2,2.2,0,0,0,0-3.148" fill="#353536"/>
        <path id="Path_2538" data-name="Path 2538" d="M178.638,942.329a2.279,2.279,0,0,0-3.192,0,2.207,2.207,0,0,0,0,3.149,2.276,2.276,0,0,0,3.19,0,2.21,2.21,0,0,0,0-3.152" fill="#353536"/>
        <path id="Path_2539" data-name="Path 2539" d="M194.59,958.076a2.281,2.281,0,0,0-3.193,0,2.207,2.207,0,0,0,0,3.149,2.276,2.276,0,0,0,3.19,0,2.208,2.208,0,0,0,0-3.151" fill="#353536"/>
        <path id="Path_2540" data-name="Path 2540" d="M210.542,958.078a2.279,2.279,0,0,0-3.192,0,2.208,2.208,0,0,0,0,3.152,2.277,2.277,0,0,0,3.193,0,2.206,2.206,0,0,0,0-3.148" fill="#353536"/>
        <path id="Path_2541" data-name="Path 2541" d="M194.588,942.331a2.277,2.277,0,0,0-3.19,0,2.208,2.208,0,0,0,0,3.152,2.277,2.277,0,0,0,3.193,0,2.206,2.206,0,0,0,0-3.149" fill="#353536"/>
        <path id="Path_2542" data-name="Path 2542" d="M194.588,973.825a2.277,2.277,0,0,0-3.19,0,2.208,2.208,0,0,0,0,3.152,2.275,2.275,0,0,0,3.192,0,2.2,2.2,0,0,0,0-3.148" fill="#353536"/>
        <path id="Path_2543" data-name="Path 2543" d="M178.637,958.078a2.277,2.277,0,0,0-3.19,0,2.208,2.208,0,0,0,0,3.152,2.277,2.277,0,0,0,3.193,0,2.206,2.206,0,0,0,0-3.149" fill="#353536"/>
        <path id="Path_2544" data-name="Path 2544" d="M210.542,973.823a2.279,2.279,0,0,0-3.192,0,2.207,2.207,0,0,0,0,3.149,2.274,2.274,0,0,0,3.19,0,2.208,2.208,0,0,0,0-3.15" fill="#353536"/>
        <path id="Path_2545" data-name="Path 2545" d="M162.684,958.079a2.276,2.276,0,0,0-3.189,0,2.2,2.2,0,0,0,0,3.148,2.276,2.276,0,0,0,3.19,0,2.206,2.206,0,0,0,0-3.149" fill="#353536"/>
        <path id="Path_2546" data-name="Path 2546" d="M178.637,973.826a2.279,2.279,0,0,0-3.192,0,2.206,2.206,0,0,0,0,3.149,2.276,2.276,0,0,0,3.19,0,2.207,2.207,0,0,0,0-3.148" fill="#353536"/>
        <path id="Path_2547" data-name="Path 2547" d="M194.587,989.571a2.276,2.276,0,0,0-3.189,0,2.2,2.2,0,0,0,0,3.148,2.276,2.276,0,0,0,3.19,0,2.206,2.206,0,0,0,0-3.149" fill="#353536"/>
      </g>
    </g>
    <g id="Group_456" data-name="Group 456">
      <g id="Group_455" data-name="Group 455" clip-path="url(#clip-path-5)">
        <path id="Path_2549" data-name="Path 2549" d="M163.754,927.636a2.281,2.281,0,0,0-3.193,0,2.207,2.207,0,0,0,0,3.149,2.276,2.276,0,0,0,3.19,0,2.208,2.208,0,0,0,0-3.151" fill="#353536"/>
        <path id="Path_2550" data-name="Path 2550" d="M179.7,927.636a2.277,2.277,0,0,0-3.19,0,2.208,2.208,0,0,0,0,3.152,2.275,2.275,0,0,0,3.192,0,2.206,2.206,0,0,0,0-3.149" fill="#353536"/>
        <path id="Path_2551" data-name="Path 2551" d="M163.753,943.384a2.277,2.277,0,0,0-3.19,0,2.208,2.208,0,0,0,0,3.152,2.275,2.275,0,0,0,3.192,0,2.2,2.2,0,0,0,0-3.148" fill="#353536"/>
        <path id="Path_2552" data-name="Path 2552" d="M147.8,927.637a2.277,2.277,0,0,0-3.19,0,2.208,2.208,0,0,0,0,3.152,2.277,2.277,0,0,0,3.193,0,2.206,2.206,0,0,0,0-3.149" fill="#353536"/>
        <path id="Path_2553" data-name="Path 2553" d="M179.7,943.381a2.279,2.279,0,0,0-3.192,0,2.207,2.207,0,0,0,0,3.149,2.275,2.275,0,0,0,3.19,0,2.208,2.208,0,0,0,0-3.151" fill="#353536"/>
        <path id="Path_2554" data-name="Path 2554" d="M131.848,927.637a2.276,2.276,0,0,0-3.189,0,2.2,2.2,0,0,0,0,3.148,2.276,2.276,0,0,0,3.19,0,2.206,2.206,0,0,0,0-3.149" fill="#353536"/>
        <path id="Path_2555" data-name="Path 2555" d="M147.8,943.384a2.277,2.277,0,0,0-3.19,0,2.206,2.206,0,0,0,0,3.149,2.274,2.274,0,0,0,3.189,0,2.206,2.206,0,0,0,0-3.149" fill="#353536"/>
        <path id="Path_2556" data-name="Path 2556" d="M163.75,959.131a2.275,2.275,0,0,0-3.189,0,2.206,2.206,0,0,0,0,3.148,2.276,2.276,0,0,0,3.19,0,2.206,2.206,0,0,0,0-3.149" fill="#353536"/>
      </g>
    </g>
    <g id="Group_458" data-name="Group 458">
      <g id="Group_457" data-name="Group 457" clip-path="url(#clip-path-6)">
        <path id="Path_2558" data-name="Path 2558" d="M132.914,928.69a2.275,2.275,0,0,0-3.189,0,2.206,2.206,0,0,0,0,3.148,2.276,2.276,0,0,0,3.19,0,2.206,2.206,0,0,0,0-3.149" fill="#353536"/>
      </g>
    </g>
    <g id="Group_460" data-name="Group 460">
      <g id="Group_459" data-name="Group 459" clip-path="url(#clip-path-7)">
        <path id="Path_2560" data-name="Path 2560" d="M224.357,1079.843a2.275,2.275,0,0,0-3.189,0,2.2,2.2,0,0,0,0,3.147,2.276,2.276,0,0,0,3.19,0,2.206,2.206,0,0,0,0-3.149" fill="#353536"/>
      </g>
    </g>
    <g id="Group_462" data-name="Group 462">
      <g id="Group_461" data-name="Group 461" clip-path="url(#clip-path-8)">
        <path id="Path_2562" data-name="Path 2562" d="M225.423,1017.909a2.276,2.276,0,0,0-3.189,0,2.2,2.2,0,0,0,0,3.148,2.276,2.276,0,0,0,3.19,0,2.206,2.206,0,0,0,0-3.149" fill="#353536"/>
        <path id="Path_2563" data-name="Path 2563" d="M241.376,1033.656a2.277,2.277,0,0,0-3.19,0,2.206,2.206,0,0,0,0,3.149,2.274,2.274,0,0,0,3.188,0,2.2,2.2,0,0,0,0-3.148" fill="#353536"/>
        <path id="Path_2564" data-name="Path 2564" d="M209.474,1033.652a2.279,2.279,0,0,0-3.192,0,2.207,2.207,0,0,0,0,3.149,2.276,2.276,0,0,0,3.19,0,2.21,2.21,0,0,0,0-3.152" fill="#353536"/>
        <path id="Path_2565" data-name="Path 2565" d="M225.426,1049.4a2.281,2.281,0,0,0-3.193,0,2.208,2.208,0,0,0,0,3.149,2.276,2.276,0,0,0,3.19,0,2.208,2.208,0,0,0,0-3.151" fill="#353536"/>
        <path id="Path_2566" data-name="Path 2566" d="M241.376,1049.4a2.277,2.277,0,0,0-3.19,0,2.208,2.208,0,0,0,0,3.152,2.275,2.275,0,0,0,3.192,0,2.2,2.2,0,0,0,0-3.148" fill="#353536"/>
        <path id="Path_2567" data-name="Path 2567" d="M225.424,1033.654a2.277,2.277,0,0,0-3.19,0,2.208,2.208,0,0,0,0,3.152,2.277,2.277,0,0,0,3.193,0,2.206,2.206,0,0,0,0-3.149" fill="#353536"/>
        <path id="Path_2568" data-name="Path 2568" d="M225.424,1065.148a2.277,2.277,0,0,0-3.19,0,2.208,2.208,0,0,0,0,3.152,2.275,2.275,0,0,0,3.192,0,2.2,2.2,0,0,0,0-3.148" fill="#353536"/>
        <path id="Path_2569" data-name="Path 2569" d="M209.473,1049.4a2.277,2.277,0,0,0-3.19,0,2.208,2.208,0,0,0,0,3.152,2.277,2.277,0,0,0,3.193,0,2.206,2.206,0,0,0,0-3.149" fill="#353536"/>
        <path id="Path_2570" data-name="Path 2570" d="M241.376,1065.146a2.279,2.279,0,0,0-3.192,0,2.207,2.207,0,0,0,0,3.149,2.275,2.275,0,0,0,3.19,0,2.208,2.208,0,0,0,0-3.151" fill="#353536"/>
        <path id="Path_2571" data-name="Path 2571" d="M193.52,1049.4a2.276,2.276,0,0,0-3.189,0,2.2,2.2,0,0,0,0,3.148,2.276,2.276,0,0,0,3.19,0,2.206,2.206,0,0,0,0-3.149" fill="#353536"/>
        <path id="Path_2572" data-name="Path 2572" d="M209.471,1065.149a2.277,2.277,0,0,0-3.19,0,2.206,2.206,0,0,0,0,3.149,2.274,2.274,0,0,0,3.189,0,2.2,2.2,0,0,0,0-3.148" fill="#353536"/>
        <path id="Path_2573" data-name="Path 2573" d="M225.423,1080.9a2.276,2.276,0,0,0-3.189,0,2.206,2.206,0,0,0,0,3.148,2.276,2.276,0,0,0,3.19,0,2.206,2.206,0,0,0,0-3.149" fill="#353536"/>
      </g>
    </g>
    <g id="Group_464" data-name="Group 464">
      <g id="Group_463" data-name="Group 463" clip-path="url(#clip-path-9)">
        <path id="Path_2575" data-name="Path 2575" d="M194.587,987.467a2.275,2.275,0,0,0-3.189,0,2.2,2.2,0,0,0,0,3.148,2.276,2.276,0,0,0,3.19,0,2.206,2.206,0,0,0,0-3.149" fill="#353536"/>
        <path id="Path_2576" data-name="Path 2576" d="M210.539,1003.214a2.277,2.277,0,0,0-3.19,0,2.206,2.206,0,0,0,0,3.149,2.274,2.274,0,0,0,3.189,0,2.2,2.2,0,0,0,0-3.148" fill="#353536"/>
        <path id="Path_2577" data-name="Path 2577" d="M178.637,1003.212a2.279,2.279,0,0,0-3.192,0,2.208,2.208,0,0,0,0,3.149,2.276,2.276,0,0,0,3.19,0,2.21,2.21,0,0,0,0-3.152" fill="#353536"/>
        <path id="Path_2578" data-name="Path 2578" d="M194.59,1018.959a2.281,2.281,0,0,0-3.193,0,2.207,2.207,0,0,0,0,3.149,2.276,2.276,0,0,0,3.19,0,2.208,2.208,0,0,0,0-3.151" fill="#353536"/>
        <path id="Path_2579" data-name="Path 2579" d="M210.54,1018.961a2.277,2.277,0,0,0-3.19,0,2.208,2.208,0,0,0,0,3.152,2.275,2.275,0,0,0,3.192,0,2.2,2.2,0,0,0,0-3.148" fill="#353536"/>
        <path id="Path_2580" data-name="Path 2580" d="M194.588,1003.214a2.277,2.277,0,0,0-3.19,0,2.208,2.208,0,0,0,0,3.152,2.277,2.277,0,0,0,3.193,0,2.206,2.206,0,0,0,0-3.149" fill="#353536"/>
        <path id="Path_2581" data-name="Path 2581" d="M194.588,1034.708a2.277,2.277,0,0,0-3.19,0,2.208,2.208,0,0,0,0,3.152,2.275,2.275,0,0,0,3.192,0,2.2,2.2,0,0,0,0-3.148" fill="#353536"/>
        <path id="Path_2582" data-name="Path 2582" d="M178.637,1018.961a2.277,2.277,0,0,0-3.19,0,2.208,2.208,0,0,0,0,3.152,2.277,2.277,0,0,0,3.193,0,2.206,2.206,0,0,0,0-3.149" fill="#353536"/>
        <path id="Path_2583" data-name="Path 2583" d="M226.49,1018.961a2.276,2.276,0,0,0-3.189,0,2.206,2.206,0,0,0,0,3.148,2.276,2.276,0,0,0,3.19,0,2.206,2.206,0,0,0,0-3.149" fill="#353536"/>
        <path id="Path_2584" data-name="Path 2584" d="M210.54,1034.706a2.279,2.279,0,0,0-3.192,0,2.208,2.208,0,0,0,0,3.149,2.275,2.275,0,0,0,3.19,0,2.208,2.208,0,0,0,0-3.151" fill="#353536"/>
        <path id="Path_2585" data-name="Path 2585" d="M162.684,1018.962a2.275,2.275,0,0,0-3.189,0,2.2,2.2,0,0,0,0,3.148,2.276,2.276,0,0,0,3.19,0,2.206,2.206,0,0,0,0-3.149" fill="#353536"/>
        <path id="Path_2586" data-name="Path 2586" d="M178.635,1034.709a2.277,2.277,0,0,0-3.19,0,2.206,2.206,0,0,0,0,3.149,2.274,2.274,0,0,0,3.189,0,2.2,2.2,0,0,0,0-3.148" fill="#353536"/>
        <path id="Path_2587" data-name="Path 2587" d="M194.585,1050.454a2.276,2.276,0,0,0-3.189,0,2.2,2.2,0,0,0,0,3.148,2.276,2.276,0,0,0,3.19,0,2.206,2.206,0,0,0,0-3.149" fill="#353536"/>
      </g>
    </g>
    <g id="Group_466" data-name="Group 466">
      <g id="Group_465" data-name="Group 465" clip-path="url(#clip-path-10)">
        <path id="Path_2588" data-name="Path 2588" d="M163.75,957.025a2.276,2.276,0,0,0-3.189,0,2.2,2.2,0,0,0,0,3.148,2.276,2.276,0,0,0,3.19,0,2.206,2.206,0,0,0,0-3.149" fill="#353536"/>
        <path id="Path_2589" data-name="Path 2589" d="M179.7,972.774a2.277,2.277,0,0,0-3.19,0,2.206,2.206,0,0,0,0,3.149,2.274,2.274,0,0,0,3.189,0,2.2,2.2,0,0,0,0-3.148" fill="#353536"/>
        <path id="Path_2590" data-name="Path 2590" d="M147.8,972.771a2.279,2.279,0,0,0-3.192,0,2.207,2.207,0,0,0,0,3.149,2.276,2.276,0,0,0,3.19,0,2.21,2.21,0,0,0,0-3.152" fill="#353536"/>
        <path id="Path_2591" data-name="Path 2591" d="M163.753,988.518a2.281,2.281,0,0,0-3.193,0,2.207,2.207,0,0,0,0,3.149,2.276,2.276,0,0,0,3.19,0,2.208,2.208,0,0,0,0-3.151" fill="#353536"/>
        <path id="Path_2592" data-name="Path 2592" d="M179.7,988.519a2.277,2.277,0,0,0-3.19,0,2.208,2.208,0,0,0,0,3.152,2.275,2.275,0,0,0,3.192,0,2.2,2.2,0,0,0,0-3.148" fill="#353536"/>
        <path id="Path_2593" data-name="Path 2593" d="M163.751,972.772a2.277,2.277,0,0,0-3.19,0,2.208,2.208,0,0,0,0,3.152,2.277,2.277,0,0,0,3.193,0,2.206,2.206,0,0,0,0-3.149" fill="#353536"/>
        <path id="Path_2594" data-name="Path 2594" d="M163.751,1004.266a2.277,2.277,0,0,0-3.19,0,2.208,2.208,0,0,0,0,3.152,2.275,2.275,0,0,0,3.192,0,2.2,2.2,0,0,0,0-3.148" fill="#353536"/>
        <path id="Path_2595" data-name="Path 2595" d="M147.8,988.519a2.277,2.277,0,0,0-3.19,0,2.208,2.208,0,0,0,0,3.152,2.277,2.277,0,0,0,3.193,0,2.206,2.206,0,0,0,0-3.149" fill="#353536"/>
        <path id="Path_2596" data-name="Path 2596" d="M195.653,988.519a2.275,2.275,0,0,0-3.189,0,2.206,2.206,0,0,0,0,3.148,2.276,2.276,0,0,0,3.19,0,2.206,2.206,0,0,0,0-3.149" fill="#353536"/>
        <path id="Path_2597" data-name="Path 2597" d="M179.7,1004.265a2.279,2.279,0,0,0-3.192,0,2.207,2.207,0,0,0,0,3.149,2.275,2.275,0,0,0,3.19,0,2.208,2.208,0,0,0,0-3.151" fill="#353536"/>
        <path id="Path_2598" data-name="Path 2598" d="M131.846,988.521a2.276,2.276,0,0,0-3.189,0,2.2,2.2,0,0,0,0,3.148,2.276,2.276,0,0,0,3.19,0,2.206,2.206,0,0,0,0-3.149" fill="#353536"/>
        <path id="Path_2599" data-name="Path 2599" d="M147.8,1004.268a2.277,2.277,0,0,0-3.19,0,2.206,2.206,0,0,0,0,3.149,2.274,2.274,0,0,0,3.189,0,2.2,2.2,0,0,0,0-3.148" fill="#353536"/>
        <path id="Path_2600" data-name="Path 2600" d="M163.75,1020.014a2.275,2.275,0,0,0-3.189,0,2.2,2.2,0,0,0,0,3.148,2.276,2.276,0,0,0,3.19,0,2.206,2.206,0,0,0,0-3.149" fill="#353536"/>
      </g>
    </g>
    <g id="Group_468" data-name="Group 468">
      <g id="Group_467" data-name="Group 467" clip-path="url(#clip-path-11)">
        <path id="Path_2601" data-name="Path 2601" d="M132.914,926.585a2.276,2.276,0,0,0-3.189,0,2.2,2.2,0,0,0,0,3.148,2.276,2.276,0,0,0,3.19,0,2.206,2.206,0,0,0,0-3.149" fill="#353536"/>
        <path id="Path_2602" data-name="Path 2602" d="M148.865,942.332a2.277,2.277,0,0,0-3.19,0,2.206,2.206,0,0,0,0,3.149,2.274,2.274,0,0,0,3.189,0,2.2,2.2,0,0,0,0-3.148" fill="#353536"/>
        <path id="Path_2603" data-name="Path 2603" d="M116.964,942.331a2.279,2.279,0,0,0-3.192,0,2.207,2.207,0,0,0,0,3.149,2.276,2.276,0,0,0,3.19,0,2.21,2.21,0,0,0,0-3.152" fill="#353536"/>
        <path id="Path_2604" data-name="Path 2604" d="M132.915,958.078a2.281,2.281,0,0,0-3.193,0,2.207,2.207,0,0,0,0,3.149,2.276,2.276,0,0,0,3.19,0,2.208,2.208,0,0,0,0-3.151" fill="#353536"/>
        <path id="Path_2605" data-name="Path 2605" d="M148.867,958.079a2.277,2.277,0,0,0-3.19,0,2.208,2.208,0,0,0,0,3.152,2.275,2.275,0,0,0,3.192,0,2.2,2.2,0,0,0,0-3.148" fill="#353536"/>
        <path id="Path_2606" data-name="Path 2606" d="M132.915,942.332a2.277,2.277,0,0,0-3.19,0,2.208,2.208,0,0,0,0,3.152,2.277,2.277,0,0,0,3.193,0,2.206,2.206,0,0,0,0-3.149" fill="#353536"/>
        <path id="Path_2607" data-name="Path 2607" d="M132.915,973.826a2.277,2.277,0,0,0-3.19,0,2.208,2.208,0,0,0,0,3.152,2.275,2.275,0,0,0,3.192,0,2.2,2.2,0,0,0,0-3.148" fill="#353536"/>
        <path id="Path_2608" data-name="Path 2608" d="M116.964,958.079a2.279,2.279,0,0,0-3.192,0,2.21,2.21,0,0,0,0,3.152,2.279,2.279,0,0,0,3.195,0,2.206,2.206,0,0,0,0-3.149" fill="#353536"/>
        <path id="Path_2609" data-name="Path 2609" d="M164.817,958.079a2.275,2.275,0,0,0-3.189,0,2.206,2.206,0,0,0,0,3.148,2.276,2.276,0,0,0,3.19,0,2.206,2.206,0,0,0,0-3.149" fill="#353536"/>
        <path id="Path_2610" data-name="Path 2610" d="M148.867,973.823a2.279,2.279,0,0,0-3.192,0,2.207,2.207,0,0,0,0,3.149,2.274,2.274,0,0,0,3.19,0,2.208,2.208,0,0,0,0-3.15" fill="#353536"/>
        <path id="Path_2611" data-name="Path 2611" d="M101.01,958.079a2.275,2.275,0,0,0-3.189,0,2.2,2.2,0,0,0,0,3.148,2.276,2.276,0,0,0,3.19,0,2.206,2.206,0,0,0,0-3.149" fill="#353536"/>
        <path id="Path_2612" data-name="Path 2612" d="M116.962,973.828a2.277,2.277,0,0,0-3.19,0,2.206,2.206,0,0,0,0,3.149,2.274,2.274,0,0,0,3.189,0,2.2,2.2,0,0,0,0-3.148" fill="#353536"/>
        <path id="Path_2613" data-name="Path 2613" d="M132.912,989.573a2.276,2.276,0,0,0-3.189,0,2.206,2.206,0,0,0,0,3.148,2.276,2.276,0,0,0,3.19,0,2.206,2.206,0,0,0,0-3.149" fill="#353536"/>
      </g>
    </g>
    <g id="Group_470" data-name="Group 470">
      <g id="Group_469" data-name="Group 469" clip-path="url(#clip-path-12)">
        <path id="Path_2614" data-name="Path 2614" d="M102.079,927.636a2.281,2.281,0,0,0-3.193,0,2.207,2.207,0,0,0,0,3.149,2.276,2.276,0,0,0,3.19,0,2.21,2.21,0,0,0,0-3.152" fill="#353536"/>
        <path id="Path_2615" data-name="Path 2615" d="M118.029,927.637a2.277,2.277,0,0,0-3.19,0,2.208,2.208,0,0,0,0,3.152,2.275,2.275,0,0,0,3.192,0,2.2,2.2,0,0,0,0-3.148" fill="#353536"/>
        <path id="Path_2616" data-name="Path 2616" d="M102.078,943.384a2.277,2.277,0,0,0-3.19,0,2.208,2.208,0,0,0,0,3.152,2.275,2.275,0,0,0,3.192,0,2.2,2.2,0,0,0,0-3.148" fill="#353536"/>
        <path id="Path_2617" data-name="Path 2617" d="M86.126,927.637a2.277,2.277,0,0,0-3.19,0,2.208,2.208,0,0,0,0,3.152,2.277,2.277,0,0,0,3.193,0,2.206,2.206,0,0,0,0-3.149" fill="#353536"/>
        <path id="Path_2618" data-name="Path 2618" d="M133.979,927.637a2.276,2.276,0,0,0-3.189,0,2.206,2.206,0,0,0,0,3.148,2.276,2.276,0,0,0,3.19,0,2.206,2.206,0,0,0,0-3.149" fill="#353536"/>
        <path id="Path_2619" data-name="Path 2619" d="M118.029,943.383a2.279,2.279,0,0,0-3.192,0,2.207,2.207,0,0,0,0,3.149,2.274,2.274,0,0,0,3.19,0,2.208,2.208,0,0,0,0-3.151" fill="#353536"/>
        <path id="Path_2620" data-name="Path 2620" d="M70.173,927.639a2.276,2.276,0,0,0-3.189,0,2.2,2.2,0,0,0,0,3.148,2.276,2.276,0,0,0,3.19,0,2.206,2.206,0,0,0,0-3.149" fill="#353536"/>
        <path id="Path_2621" data-name="Path 2621" d="M86.125,943.386a2.277,2.277,0,0,0-3.19,0,2.206,2.206,0,0,0,0,3.149,2.274,2.274,0,0,0,3.189,0,2.2,2.2,0,0,0,0-3.148" fill="#353536"/>
        <path id="Path_2622" data-name="Path 2622" d="M102.076,959.133a2.276,2.276,0,0,0-3.189,0,2.206,2.206,0,0,0,0,3.148,2.276,2.276,0,0,0,3.19,0,2.206,2.206,0,0,0,0-3.149" fill="#353536"/>
      </g>
    </g>
    <g id="Group_474" data-name="Group 474">
      <g id="Group_473" data-name="Group 473" clip-path="url(#clip-path-13)">
        <g id="Group_472" data-name="Group 472">
          <g id="Group_471" data-name="Group 471" clip-path="url(#clip-path-14)">
            <path id="Path_2624" data-name="Path 2624" d="M71.239,928.691a2.276,2.276,0,0,0-3.189,0,2.206,2.206,0,0,0,0,3.148,2.276,2.276,0,0,0,3.19,0,2.206,2.206,0,0,0,0-3.149" fill="#353536"/>
          </g>
        </g>
      </g>
    </g>
    <path id="Path_2626" data-name="Path 2626" d="M69.645,867.277l-31.9,31.5,31.9,31.494,31.9-31.5-31.9-31.494" fill="none"/>
    <g id="Group_476" data-name="Group 476">
      <g id="Group_475" data-name="Group 475" clip-path="url(#clip-path-15)">
        <path id="Path_2627" data-name="Path 2627" d="M225.423,1078.79a2.276,2.276,0,0,0-3.189,0,2.206,2.206,0,0,0,0,3.149,2.276,2.276,0,0,0,3.19,0,2.208,2.208,0,0,0,0-3.151" fill="#353536"/>
        <path id="Path_2628" data-name="Path 2628" d="M209.473,1094.536a2.279,2.279,0,0,0-3.192,0,2.207,2.207,0,0,0,0,3.149,2.276,2.276,0,0,0,3.19,0,2.21,2.21,0,0,0,0-3.152" fill="#353536"/>
        <path id="Path_2629" data-name="Path 2629" d="M225.424,1110.283a2.281,2.281,0,0,0-3.193,0,2.208,2.208,0,0,0,0,3.149,2.276,2.276,0,0,0,3.19,0,2.208,2.208,0,0,0,0-3.151" fill="#353536"/>
        <path id="Path_2630" data-name="Path 2630" d="M225.424,1094.537a2.277,2.277,0,0,0-3.19,0,2.208,2.208,0,0,0,0,3.152,2.277,2.277,0,0,0,3.193,0,2.206,2.206,0,0,0,0-3.149" fill="#353536"/>
        <path id="Path_2631" data-name="Path 2631" d="M209.471,1110.284a2.277,2.277,0,0,0-3.19,0,2.208,2.208,0,0,0,0,3.152,2.277,2.277,0,0,0,3.193,0,2.206,2.206,0,0,0,0-3.149" fill="#353536"/>
        <path id="Path_2632" data-name="Path 2632" d="M193.52,1110.286a2.278,2.278,0,0,0-3.19,0,2.2,2.2,0,0,0,0,3.148,2.276,2.276,0,0,0,3.19,0,2.208,2.208,0,0,0,0-3.149" fill="#353536"/>
      </g>
    </g>
    <g id="Group_478" data-name="Group 478">
      <g id="Group_477" data-name="Group 477" clip-path="url(#clip-path-16)">
        <path id="Path_2634" data-name="Path 2634" d="M194.585,1048.35a2.276,2.276,0,0,0-3.189,0,2.2,2.2,0,0,0,0,3.148,2.276,2.276,0,0,0,3.19,0,2.206,2.206,0,0,0,0-3.149" fill="#353536"/>
        <path id="Path_2635" data-name="Path 2635" d="M210.537,1064.1a2.277,2.277,0,0,0-3.19,0,2.208,2.208,0,0,0,0,3.149,2.274,2.274,0,0,0,3.189,0,2.2,2.2,0,0,0,0-3.148" fill="#353536"/>
        <path id="Path_2636" data-name="Path 2636" d="M178.637,1064.094a2.279,2.279,0,0,0-3.192,0,2.207,2.207,0,0,0,0,3.149,2.276,2.276,0,0,0,3.19,0,2.211,2.211,0,0,0,0-3.154" fill="#353536"/>
        <path id="Path_2637" data-name="Path 2637" d="M194.588,1079.843a2.281,2.281,0,0,0-3.193,0,2.207,2.207,0,0,0,0,3.149,2.276,2.276,0,0,0,3.19,0,2.208,2.208,0,0,0,0-3.151" fill="#353536"/>
        <path id="Path_2638" data-name="Path 2638" d="M210.539,1079.843a2.277,2.277,0,0,0-3.19,0,2.208,2.208,0,0,0,0,3.152,2.275,2.275,0,0,0,3.192,0,2.2,2.2,0,0,0,0-3.147" fill="#353536"/>
        <path id="Path_2639" data-name="Path 2639" d="M194.587,1064.1a2.277,2.277,0,0,0-3.19,0,2.208,2.208,0,0,0,0,3.152,2.277,2.277,0,0,0,3.193,0,2.206,2.206,0,0,0,0-3.149" fill="#353536"/>
        <path id="Path_2640" data-name="Path 2640" d="M194.587,1095.591a2.277,2.277,0,0,0-3.19,0,2.208,2.208,0,0,0,0,3.152,2.275,2.275,0,0,0,3.192,0,2.2,2.2,0,0,0,0-3.148" fill="#353536"/>
        <path id="Path_2641" data-name="Path 2641" d="M178.635,1079.843a2.277,2.277,0,0,0-3.19,0,2.21,2.21,0,0,0,0,3.154,2.277,2.277,0,0,0,3.193,0,2.208,2.208,0,0,0,0-3.151" fill="#353536"/>
        <path id="Path_2642" data-name="Path 2642" d="M226.489,1079.843a2.275,2.275,0,0,0-3.189,0,2.207,2.207,0,0,0,0,3.149,2.276,2.276,0,0,0,3.19,0,2.208,2.208,0,0,0,0-3.151" fill="#353536"/>
        <path id="Path_2643" data-name="Path 2643" d="M210.539,1095.588a2.279,2.279,0,0,0-3.192,0,2.208,2.208,0,0,0,0,3.149,2.275,2.275,0,0,0,3.19,0,2.208,2.208,0,0,0,0-3.151" fill="#353536"/>
        <path id="Path_2644" data-name="Path 2644" d="M162.682,1079.844a2.275,2.275,0,0,0-3.189,0,2.2,2.2,0,0,0,0,3.148,2.276,2.276,0,0,0,3.19,0,2.206,2.206,0,0,0,0-3.149" fill="#353536"/>
        <path id="Path_2645" data-name="Path 2645" d="M178.634,1095.591a2.277,2.277,0,0,0-3.19,0,2.206,2.206,0,0,0,0,3.149,2.274,2.274,0,0,0,3.189,0,2.2,2.2,0,0,0,0-3.148" fill="#353536"/>
        <path id="Path_2646" data-name="Path 2646" d="M194.585,1111.338a2.277,2.277,0,0,0-3.19,0,2.206,2.206,0,0,0,0,3.148,2.276,2.276,0,0,0,3.19,0,2.207,2.207,0,0,0,0-3.149" fill="#353536"/>
      </g>
    </g>
    <g id="Group_480" data-name="Group 480">
      <g id="Group_479" data-name="Group 479" clip-path="url(#clip-path-17)">
        <path id="Path_2647" data-name="Path 2647" d="M163.75,1017.909a2.276,2.276,0,0,0-3.189,0,2.2,2.2,0,0,0,0,3.148,2.276,2.276,0,0,0,3.19,0,2.206,2.206,0,0,0,0-3.149" fill="#353536"/>
        <path id="Path_2648" data-name="Path 2648" d="M179.7,1033.656a2.277,2.277,0,0,0-3.19,0,2.207,2.207,0,0,0,0,3.149,2.274,2.274,0,0,0,3.189,0,2.206,2.206,0,0,0,0-3.149" fill="#353536"/>
        <path id="Path_2649" data-name="Path 2649" d="M147.8,1033.654a2.279,2.279,0,0,0-3.192,0,2.207,2.207,0,0,0,0,3.149,2.276,2.276,0,0,0,3.19,0,2.21,2.21,0,0,0,0-3.152" fill="#353536"/>
        <path id="Path_2650" data-name="Path 2650" d="M163.751,1049.4a2.281,2.281,0,0,0-3.193,0,2.208,2.208,0,0,0,0,3.149,2.276,2.276,0,0,0,3.19,0,2.208,2.208,0,0,0,0-3.151" fill="#353536"/>
        <path id="Path_2651" data-name="Path 2651" d="M179.7,1049.4a2.277,2.277,0,0,0-3.19,0,2.208,2.208,0,0,0,0,3.152,2.275,2.275,0,0,0,3.192,0,2.2,2.2,0,0,0,0-3.148" fill="#353536"/>
        <path id="Path_2652" data-name="Path 2652" d="M163.75,1033.656a2.277,2.277,0,0,0-3.19,0,2.208,2.208,0,0,0,0,3.152,2.277,2.277,0,0,0,3.193,0,2.206,2.206,0,0,0,0-3.149" fill="#353536"/>
        <path id="Path_2653" data-name="Path 2653" d="M163.75,1065.149a2.277,2.277,0,0,0-3.19,0,2.208,2.208,0,0,0,0,3.152,2.275,2.275,0,0,0,3.192,0,2.2,2.2,0,0,0,0-3.148" fill="#353536"/>
        <path id="Path_2654" data-name="Path 2654" d="M147.8,1049.4a2.277,2.277,0,0,0-3.19,0,2.208,2.208,0,0,0,0,3.152,2.277,2.277,0,0,0,3.193,0,2.206,2.206,0,0,0,0-3.149" fill="#353536"/>
        <path id="Path_2655" data-name="Path 2655" d="M195.651,1049.4a2.276,2.276,0,0,0-3.189,0,2.206,2.206,0,0,0,0,3.148,2.276,2.276,0,0,0,3.19,0,2.206,2.206,0,0,0,0-3.149" fill="#353536"/>
        <path id="Path_2656" data-name="Path 2656" d="M179.7,1065.148a2.279,2.279,0,0,0-3.192,0,2.207,2.207,0,0,0,0,3.149,2.275,2.275,0,0,0,3.19,0,2.208,2.208,0,0,0,0-3.151" fill="#353536"/>
        <path id="Path_2657" data-name="Path 2657" d="M131.845,1049.4a2.276,2.276,0,0,0-3.189,0,2.2,2.2,0,0,0,0,3.148,2.276,2.276,0,0,0,3.19,0,2.206,2.206,0,0,0,0-3.149" fill="#353536"/>
        <path id="Path_2658" data-name="Path 2658" d="M147.8,1065.151a2.277,2.277,0,0,0-3.19,0,2.206,2.206,0,0,0,0,3.149,2.274,2.274,0,0,0,3.189,0,2.2,2.2,0,0,0,0-3.148" fill="#353536"/>
        <path id="Path_2659" data-name="Path 2659" d="M163.748,1080.9a2.276,2.276,0,0,0-3.189,0,2.206,2.206,0,0,0,0,3.148,2.276,2.276,0,0,0,3.19,0,2.206,2.206,0,0,0,0-3.149" fill="#353536"/>
      </g>
    </g>
    <g id="Group_482" data-name="Group 482">
      <g id="Group_481" data-name="Group 481" clip-path="url(#clip-path-18)">
        <path id="Path_2660" data-name="Path 2660" d="M132.912,987.468a2.276,2.276,0,0,0-3.189,0,2.2,2.2,0,0,0,0,3.148,2.276,2.276,0,0,0,3.19,0,2.206,2.206,0,0,0,0-3.149" fill="#353536"/>
        <path id="Path_2661" data-name="Path 2661" d="M148.864,1003.215a2.277,2.277,0,0,0-3.19,0,2.206,2.206,0,0,0,0,3.149,2.274,2.274,0,0,0,3.189,0,2.2,2.2,0,0,0,0-3.148" fill="#353536"/>
        <path id="Path_2662" data-name="Path 2662" d="M116.964,1003.212a2.279,2.279,0,0,0-3.192,0,2.208,2.208,0,0,0,0,3.149,2.276,2.276,0,0,0,3.19,0,2.21,2.21,0,0,0,0-3.152" fill="#353536"/>
        <path id="Path_2663" data-name="Path 2663" d="M132.915,1018.961a2.281,2.281,0,0,0-3.193,0,2.207,2.207,0,0,0,0,3.149,2.276,2.276,0,0,0,3.19,0,2.208,2.208,0,0,0,0-3.151" fill="#353536"/>
        <path id="Path_2664" data-name="Path 2664" d="M148.865,1018.961a2.277,2.277,0,0,0-3.19,0,2.208,2.208,0,0,0,0,3.152,2.275,2.275,0,0,0,3.192,0,2.2,2.2,0,0,0,0-3.148" fill="#353536"/>
        <path id="Path_2665" data-name="Path 2665" d="M132.914,1003.214a2.277,2.277,0,0,0-3.19,0,2.208,2.208,0,0,0,0,3.152,2.277,2.277,0,0,0,3.193,0,2.206,2.206,0,0,0,0-3.149" fill="#353536"/>
        <path id="Path_2666" data-name="Path 2666" d="M132.914,1034.708a2.277,2.277,0,0,0-3.19,0,2.208,2.208,0,0,0,0,3.152,2.276,2.276,0,0,0,3.192,0,2.206,2.206,0,0,0,0-3.149" fill="#353536"/>
        <path id="Path_2667" data-name="Path 2667" d="M116.962,1018.962a2.277,2.277,0,0,0-3.19,0,2.208,2.208,0,0,0,0,3.152,2.277,2.277,0,0,0,3.193,0,2.206,2.206,0,0,0,0-3.149" fill="#353536"/>
        <path id="Path_2668" data-name="Path 2668" d="M164.815,1018.962a2.275,2.275,0,0,0-3.189,0,2.206,2.206,0,0,0,0,3.148,2.276,2.276,0,0,0,3.19,0,2.206,2.206,0,0,0,0-3.149" fill="#353536"/>
        <path id="Path_2669" data-name="Path 2669" d="M148.865,1034.706a2.279,2.279,0,0,0-3.192,0,2.208,2.208,0,0,0,0,3.149,2.275,2.275,0,0,0,3.19,0,2.208,2.208,0,0,0,0-3.151" fill="#353536"/>
        <path id="Path_2670" data-name="Path 2670" d="M101.009,1018.962a2.275,2.275,0,0,0-3.189,0,2.2,2.2,0,0,0,0,3.148,2.276,2.276,0,0,0,3.19,0,2.206,2.206,0,0,0,0-3.149" fill="#353536"/>
        <path id="Path_2671" data-name="Path 2671" d="M116.96,1034.709a2.277,2.277,0,0,0-3.19,0,2.206,2.206,0,0,0,0,3.149,2.274,2.274,0,0,0,3.189,0,2.2,2.2,0,0,0,0-3.148" fill="#353536"/>
        <path id="Path_2672" data-name="Path 2672" d="M132.911,1050.456a2.275,2.275,0,0,0-3.189,0,2.206,2.206,0,0,0,0,3.148,2.276,2.276,0,0,0,3.19,0,2.206,2.206,0,0,0,0-3.149" fill="#353536"/>
      </g>
    </g>
    <g id="Group_484" data-name="Group 484">
      <g id="Group_483" data-name="Group 483" clip-path="url(#clip-path-19)">
        <path id="Path_2673" data-name="Path 2673" d="M102.076,957.027a2.275,2.275,0,0,0-3.189,0,2.2,2.2,0,0,0,0,3.148,2.276,2.276,0,0,0,3.19,0,2.206,2.206,0,0,0,0-3.149" fill="#353536"/>
        <path id="Path_2674" data-name="Path 2674" d="M118.028,972.775a2.277,2.277,0,0,0-3.19,0,2.206,2.206,0,0,0,0,3.149,2.274,2.274,0,0,0,3.189,0,2.2,2.2,0,0,0,0-3.148" fill="#353536"/>
        <path id="Path_2675" data-name="Path 2675" d="M86.126,972.772a2.279,2.279,0,0,0-3.192,0,2.207,2.207,0,0,0,0,3.149,2.276,2.276,0,0,0,3.19,0,2.21,2.21,0,0,0,0-3.152" fill="#353536"/>
        <path id="Path_2676" data-name="Path 2676" d="M102.078,988.519a2.281,2.281,0,0,0-3.193,0,2.207,2.207,0,0,0,0,3.149,2.276,2.276,0,0,0,3.19,0,2.208,2.208,0,0,0,0-3.151" fill="#353536"/>
        <path id="Path_2677" data-name="Path 2677" d="M118.029,988.521a2.277,2.277,0,0,0-3.19,0,2.208,2.208,0,0,0,0,3.152,2.275,2.275,0,0,0,3.192,0,2.2,2.2,0,0,0,0-3.148" fill="#353536"/>
        <path id="Path_2678" data-name="Path 2678" d="M102.078,972.774a2.279,2.279,0,0,0-3.192,0,2.208,2.208,0,0,0,0,3.152,2.279,2.279,0,0,0,3.195,0,2.206,2.206,0,0,0,0-3.149" fill="#353536"/>
        <path id="Path_2679" data-name="Path 2679" d="M102.078,1004.268a2.279,2.279,0,0,0-3.192,0,2.208,2.208,0,0,0,0,3.152,2.277,2.277,0,0,0,3.193,0,2.2,2.2,0,0,0,0-3.148" fill="#353536"/>
        <path id="Path_2680" data-name="Path 2680" d="M86.125,988.521a2.277,2.277,0,0,0-3.19,0,2.208,2.208,0,0,0,0,3.152,2.277,2.277,0,0,0,3.193,0,2.206,2.206,0,0,0,0-3.149" fill="#353536"/>
        <path id="Path_2681" data-name="Path 2681" d="M133.978,988.521a2.276,2.276,0,0,0-3.189,0,2.206,2.206,0,0,0,0,3.148,2.276,2.276,0,0,0,3.19,0,2.206,2.206,0,0,0,0-3.149" fill="#353536"/>
        <path id="Path_2682" data-name="Path 2682" d="M118.029,1004.266a2.279,2.279,0,0,0-3.192,0,2.207,2.207,0,0,0,0,3.149,2.275,2.275,0,0,0,3.19,0,2.208,2.208,0,0,0,0-3.151" fill="#353536"/>
        <path id="Path_2683" data-name="Path 2683" d="M70.171,988.522a2.276,2.276,0,0,0-3.189,0,2.2,2.2,0,0,0,0,3.148,2.276,2.276,0,0,0,3.19,0,2.206,2.206,0,0,0,0-3.149" fill="#353536"/>
        <path id="Path_2684" data-name="Path 2684" d="M86.125,1004.269a2.277,2.277,0,0,0-3.19,0,2.206,2.206,0,0,0,0,3.149,2.274,2.274,0,0,0,3.189,0,2.2,2.2,0,0,0,0-3.148" fill="#353536"/>
        <path id="Path_2685" data-name="Path 2685" d="M102.075,1020.014a2.275,2.275,0,0,0-3.189,0,2.206,2.206,0,0,0,0,3.148,2.276,2.276,0,0,0,3.19,0,2.206,2.206,0,0,0,0-3.149" fill="#353536"/>
      </g>
    </g>
    <g id="Group_486" data-name="Group 486">
      <g id="Group_485" data-name="Group 485" clip-path="url(#clip-path-20)">
        <path id="Path_2686" data-name="Path 2686" d="M71.239,926.587a2.275,2.275,0,0,0-3.189,0,2.2,2.2,0,0,0,0,3.148,2.276,2.276,0,0,0,3.19,0,2.206,2.206,0,0,0,0-3.149" fill="#353536"/>
        <path id="Path_2687" data-name="Path 2687" d="M87.19,942.334a2.277,2.277,0,0,0-3.19,0,2.206,2.206,0,0,0,0,3.149,2.274,2.274,0,0,0,3.189,0,2.2,2.2,0,0,0,0-3.148" fill="#353536"/>
        <path id="Path_2688" data-name="Path 2688" d="M55.29,942.331a2.279,2.279,0,0,0-3.192,0,2.207,2.207,0,0,0,0,3.149,2.276,2.276,0,0,0,3.19,0,2.21,2.21,0,0,0,0-3.152" fill="#353536"/>
        <path id="Path_2689" data-name="Path 2689" d="M71.242,958.079a2.281,2.281,0,0,0-3.193,0,2.207,2.207,0,0,0,0,3.149,2.276,2.276,0,0,0,3.19,0,2.208,2.208,0,0,0,0-3.151" fill="#353536"/>
        <path id="Path_2690" data-name="Path 2690" d="M87.192,958.079a2.277,2.277,0,0,0-3.19,0,2.208,2.208,0,0,0,0,3.152,2.275,2.275,0,0,0,3.192,0,2.2,2.2,0,0,0,0-3.148" fill="#353536"/>
        <path id="Path_2691" data-name="Path 2691" d="M71.24,942.332a2.277,2.277,0,0,0-3.19,0,2.208,2.208,0,0,0,0,3.152,2.277,2.277,0,0,0,3.193,0,2.206,2.206,0,0,0,0-3.149" fill="#353536"/>
        <path id="Path_2692" data-name="Path 2692" d="M71.24,973.826a2.277,2.277,0,0,0-3.19,0,2.208,2.208,0,0,0,0,3.152,2.275,2.275,0,0,0,3.192,0,2.206,2.206,0,0,0,0-3.149" fill="#353536"/>
        <path id="Path_2693" data-name="Path 2693" d="M55.289,958.079a2.277,2.277,0,0,0-3.19,0,2.208,2.208,0,0,0,0,3.152,2.277,2.277,0,0,0,3.193,0,2.206,2.206,0,0,0,0-3.149" fill="#353536"/>
        <path id="Path_2694" data-name="Path 2694" d="M103.142,958.079a2.275,2.275,0,0,0-3.189,0,2.206,2.206,0,0,0,0,3.148,2.276,2.276,0,0,0,3.19,0,2.206,2.206,0,0,0,0-3.149" fill="#353536"/>
        <path id="Path_2695" data-name="Path 2695" d="M87.192,973.825a2.279,2.279,0,0,0-3.192,0,2.208,2.208,0,0,0,0,3.149,2.275,2.275,0,0,0,3.19,0,2.208,2.208,0,0,0,0-3.151" fill="#353536"/>
        <path id="Path_2696" data-name="Path 2696" d="M39.336,958.081a2.275,2.275,0,0,0-3.189,0,2.2,2.2,0,0,0,0,3.148,2.276,2.276,0,0,0,3.19,0,2.206,2.206,0,0,0,0-3.149" fill="#353536"/>
        <path id="Path_2697" data-name="Path 2697" d="M55.287,973.828a2.277,2.277,0,0,0-3.19,0,2.206,2.206,0,0,0,0,3.149,2.274,2.274,0,0,0,3.189,0,2.2,2.2,0,0,0,0-3.148" fill="#353536"/>
        <path id="Path_2698" data-name="Path 2698" d="M71.239,989.574a2.276,2.276,0,0,0-3.189,0,2.206,2.206,0,0,0,0,3.148,2.276,2.276,0,0,0,3.19,0,2.206,2.206,0,0,0,0-3.149" fill="#353536"/>
      </g>
    </g>
    <g id="Group_488" data-name="Group 488">
      <g id="Group_487" data-name="Group 487" clip-path="url(#clip-path-21)">
        <path id="Path_2700" data-name="Path 2700" d="M40.4,927.637a2.281,2.281,0,0,0-3.193,0,2.207,2.207,0,0,0,0,3.149,2.276,2.276,0,0,0,3.19,0,2.208,2.208,0,0,0,0-3.151" fill="#353536"/>
        <path id="Path_2701" data-name="Path 2701" d="M56.356,927.639a2.277,2.277,0,0,0-3.19,0,2.208,2.208,0,0,0,0,3.152,2.275,2.275,0,0,0,3.192,0,2.2,2.2,0,0,0,0-3.148" fill="#353536"/>
        <path id="Path_2702" data-name="Path 2702" d="M40.4,943.386a2.277,2.277,0,0,0-3.19,0,2.208,2.208,0,0,0,0,3.152,2.275,2.275,0,0,0,3.192,0,2.2,2.2,0,0,0,0-3.148" fill="#353536"/>
        <path id="Path_2703" data-name="Path 2703" d="M72.3,927.639a2.276,2.276,0,0,0-3.189,0,2.206,2.206,0,0,0,0,3.148,2.276,2.276,0,0,0,3.19,0,2.206,2.206,0,0,0,0-3.149" fill="#353536"/>
        <path id="Path_2704" data-name="Path 2704" d="M56.356,943.384a2.279,2.279,0,0,0-3.192,0,2.207,2.207,0,0,0,0,3.149,2.275,2.275,0,0,0,3.19,0,2.208,2.208,0,0,0,0-3.151" fill="#353536"/>
        <path id="Path_2705" data-name="Path 2705" d="M40.4,959.133a2.276,2.276,0,0,0-3.189,0,2.206,2.206,0,0,0,0,3.148,2.276,2.276,0,0,0,3.19,0,2.206,2.206,0,0,0,0-3.149" fill="#353536"/>
      </g>
    </g>
    <g id="Group_490" data-name="Group 490">
      <g id="Group_489" data-name="Group 489" clip-path="url(#clip-path-22)">
        <path id="Path_2707" data-name="Path 2707" d="M194.585,1109.232a2.276,2.276,0,0,0-3.189,0,2.2,2.2,0,0,0,0,3.148,2.276,2.276,0,0,0,3.19,0,2.206,2.206,0,0,0,0-3.149" fill="#353536"/>
        <path id="Path_2708" data-name="Path 2708" d="M178.635,1124.977a2.279,2.279,0,0,0-3.192,0,2.207,2.207,0,0,0,0,3.149,2.276,2.276,0,0,0,3.19,0,2.21,2.21,0,0,0,0-3.152" fill="#353536"/>
        <path id="Path_2709" data-name="Path 2709" d="M194.587,1140.724a2.281,2.281,0,0,0-3.193,0,2.207,2.207,0,0,0,0,3.149,2.276,2.276,0,0,0,3.19,0,2.208,2.208,0,0,0,0-3.151" fill="#353536"/>
        <path id="Path_2710" data-name="Path 2710" d="M194.585,1124.979a2.277,2.277,0,0,0-3.19,0,2.208,2.208,0,0,0,0,3.152,2.277,2.277,0,0,0,3.193,0,2.206,2.206,0,0,0,0-3.149" fill="#353536"/>
        <path id="Path_2711" data-name="Path 2711" d="M178.634,1140.726a2.277,2.277,0,0,0-3.19,0,2.209,2.209,0,0,0,0,3.152,2.277,2.277,0,0,0,3.193,0,2.206,2.206,0,0,0,0-3.149" fill="#353536"/>
        <path id="Path_2712" data-name="Path 2712" d="M162.681,1140.727a2.275,2.275,0,0,0-3.189,0,2.2,2.2,0,0,0,0,3.148,2.276,2.276,0,0,0,3.19,0,2.206,2.206,0,0,0,0-3.149" fill="#353536"/>
      </g>
    </g>
    <g id="Group_492" data-name="Group 492">
      <g id="Group_491" data-name="Group 491" clip-path="url(#clip-path-23)">
        <path id="Path_2714" data-name="Path 2714" d="M163.748,1078.792a2.276,2.276,0,0,0-3.189,0,2.2,2.2,0,0,0,0,3.148,2.276,2.276,0,0,0,3.19,0,2.206,2.206,0,0,0,0-3.149" fill="#353536"/>
        <path id="Path_2715" data-name="Path 2715" d="M179.7,1094.539a2.277,2.277,0,0,0-3.19,0,2.207,2.207,0,0,0,0,3.149,2.274,2.274,0,0,0,3.189,0,2.2,2.2,0,0,0,0-3.148" fill="#353536"/>
        <path id="Path_2716" data-name="Path 2716" d="M147.8,1094.537a2.279,2.279,0,0,0-3.192,0,2.207,2.207,0,0,0,0,3.149,2.276,2.276,0,0,0,3.19,0,2.21,2.21,0,0,0,0-3.152" fill="#353536"/>
        <path id="Path_2717" data-name="Path 2717" d="M163.75,1110.284a2.281,2.281,0,0,0-3.193,0,2.208,2.208,0,0,0,0,3.149,2.276,2.276,0,0,0,3.19,0,2.208,2.208,0,0,0,0-3.151" fill="#353536"/>
        <path id="Path_2718" data-name="Path 2718" d="M179.7,1110.286a2.278,2.278,0,0,0-3.19,0,2.208,2.208,0,0,0,0,3.152,2.275,2.275,0,0,0,3.192,0,2.2,2.2,0,0,0,0-3.148" fill="#353536"/>
        <path id="Path_2719" data-name="Path 2719" d="M163.75,1094.537a2.277,2.277,0,0,0-3.19,0,2.208,2.208,0,0,0,0,3.152,2.277,2.277,0,0,0,3.193,0,2.206,2.206,0,0,0,0-3.149" fill="#353536"/>
        <path id="Path_2720" data-name="Path 2720" d="M163.75,1126.032a2.277,2.277,0,0,0-3.19,0,2.208,2.208,0,0,0,0,3.152,2.275,2.275,0,0,0,3.192,0,2.2,2.2,0,0,0,0-3.148" fill="#353536"/>
        <path id="Path_2721" data-name="Path 2721" d="M147.8,1110.286a2.278,2.278,0,0,0-3.19,0,2.208,2.208,0,0,0,0,3.152,2.277,2.277,0,0,0,3.193,0,2.206,2.206,0,0,0,0-3.149" fill="#353536"/>
        <path id="Path_2722" data-name="Path 2722" d="M195.651,1110.286a2.276,2.276,0,0,0-3.189,0,2.206,2.206,0,0,0,0,3.148,2.276,2.276,0,0,0,3.19,0,2.206,2.206,0,0,0,0-3.149" fill="#353536"/>
        <path id="Path_2723" data-name="Path 2723" d="M179.7,1126.03a2.279,2.279,0,0,0-3.192,0,2.207,2.207,0,0,0,0,3.149,2.275,2.275,0,0,0,3.19,0,2.208,2.208,0,0,0,0-3.151" fill="#353536"/>
        <path id="Path_2724" data-name="Path 2724" d="M131.845,1110.286a2.276,2.276,0,0,0-3.189,0,2.2,2.2,0,0,0,0,3.148,2.276,2.276,0,0,0,3.19,0,2.206,2.206,0,0,0,0-3.149" fill="#353536"/>
        <path id="Path_2725" data-name="Path 2725" d="M147.8,1126.034a2.277,2.277,0,0,0-3.19,0,2.206,2.206,0,0,0,0,3.149,2.274,2.274,0,0,0,3.189,0,2.2,2.2,0,0,0,0-3.148" fill="#353536"/>
        <path id="Path_2726" data-name="Path 2726" d="M163.746,1141.779a2.275,2.275,0,0,0-3.189,0,2.206,2.206,0,0,0,0,3.148,2.276,2.276,0,0,0,3.19,0,2.206,2.206,0,0,0,0-3.149" fill="#353536"/>
      </g>
    </g>
    <g id="Group_494" data-name="Group 494">
      <g id="Group_493" data-name="Group 493" clip-path="url(#clip-path-24)">
        <path id="Path_2727" data-name="Path 2727" d="M132.912,1048.352a2.276,2.276,0,0,0-3.189,0,2.2,2.2,0,0,0,0,3.148,2.276,2.276,0,0,0,3.19,0,2.206,2.206,0,0,0,0-3.149" fill="#353536"/>
        <path id="Path_2728" data-name="Path 2728" d="M148.864,1064.1a2.277,2.277,0,0,0-3.19,0,2.206,2.206,0,0,0,0,3.149,2.274,2.274,0,0,0,3.189,0,2.2,2.2,0,0,0,0-3.148" fill="#353536"/>
        <path id="Path_2729" data-name="Path 2729" d="M116.962,1064.1a2.279,2.279,0,0,0-3.192,0,2.207,2.207,0,0,0,0,3.149,2.276,2.276,0,0,0,3.19,0,2.21,2.21,0,0,0,0-3.152" fill="#353536"/>
        <path id="Path_2730" data-name="Path 2730" d="M132.914,1079.843a2.281,2.281,0,0,0-3.193,0,2.208,2.208,0,0,0,0,3.149,2.276,2.276,0,0,0,3.19,0,2.21,2.21,0,0,0,0-3.152" fill="#353536"/>
        <path id="Path_2731" data-name="Path 2731" d="M148.864,1079.844a2.277,2.277,0,0,0-3.19,0,2.208,2.208,0,0,0,0,3.152,2.275,2.275,0,0,0,3.192,0,2.2,2.2,0,0,0,0-3.148" fill="#353536"/>
        <path id="Path_2732" data-name="Path 2732" d="M132.912,1064.1a2.277,2.277,0,0,0-3.19,0,2.208,2.208,0,0,0,0,3.152,2.277,2.277,0,0,0,3.193,0,2.206,2.206,0,0,0,0-3.149" fill="#353536"/>
        <path id="Path_2733" data-name="Path 2733" d="M132.912,1095.591a2.277,2.277,0,0,0-3.19,0,2.208,2.208,0,0,0,0,3.152,2.275,2.275,0,0,0,3.192,0,2.2,2.2,0,0,0,0-3.148" fill="#353536"/>
        <path id="Path_2734" data-name="Path 2734" d="M116.96,1079.844a2.277,2.277,0,0,0-3.19,0,2.208,2.208,0,0,0,0,3.152,2.277,2.277,0,0,0,3.193,0,2.206,2.206,0,0,0,0-3.149" fill="#353536"/>
        <path id="Path_2735" data-name="Path 2735" d="M164.814,1079.844a2.275,2.275,0,0,0-3.189,0,2.206,2.206,0,0,0,0,3.148,2.276,2.276,0,0,0,3.19,0,2.206,2.206,0,0,0,0-3.149" fill="#353536"/>
        <path id="Path_2736" data-name="Path 2736" d="M148.865,1095.589a2.279,2.279,0,0,0-3.192,0,2.207,2.207,0,0,0,0,3.149,2.274,2.274,0,0,0,3.19,0,2.208,2.208,0,0,0,0-3.151" fill="#353536"/>
        <path id="Path_2737" data-name="Path 2737" d="M101.007,1079.845a2.275,2.275,0,0,0-3.189,0,2.2,2.2,0,0,0,0,3.148,2.276,2.276,0,0,0,3.19,0,2.206,2.206,0,0,0,0-3.149" fill="#353536"/>
        <path id="Path_2738" data-name="Path 2738" d="M116.959,1095.592a2.277,2.277,0,0,0-3.19,0,2.206,2.206,0,0,0,0,3.149,2.274,2.274,0,0,0,3.189,0,2.2,2.2,0,0,0,0-3.148" fill="#353536"/>
        <path id="Path_2739" data-name="Path 2739" d="M132.911,1111.339a2.275,2.275,0,0,0-3.189,0,2.206,2.206,0,0,0,0,3.148,2.276,2.276,0,0,0,3.19,0,2.206,2.206,0,0,0,0-3.149" fill="#353536"/>
      </g>
    </g>
    <g id="Group_496" data-name="Group 496">
      <g id="Group_495" data-name="Group 495" clip-path="url(#clip-path-25)">
        <path id="Path_2740" data-name="Path 2740" d="M102.075,1017.91a2.276,2.276,0,0,0-3.189,0,2.2,2.2,0,0,0,0,3.148,2.276,2.276,0,0,0,3.19,0,2.206,2.206,0,0,0,0-3.149" fill="#353536"/>
        <path id="Path_2741" data-name="Path 2741" d="M118.026,1033.657a2.277,2.277,0,0,0-3.19,0,2.206,2.206,0,0,0,0,3.149,2.274,2.274,0,0,0,3.189,0,2.2,2.2,0,0,0,0-3.148" fill="#353536"/>
        <path id="Path_2742" data-name="Path 2742" d="M86.125,1033.656a2.279,2.279,0,0,0-3.192,0,2.207,2.207,0,0,0,0,3.149,2.276,2.276,0,0,0,3.19,0,2.21,2.21,0,0,0,0-3.152" fill="#353536"/>
        <path id="Path_2743" data-name="Path 2743" d="M102.078,1049.4a2.281,2.281,0,0,0-3.193,0,2.208,2.208,0,0,0,0,3.149,2.276,2.276,0,0,0,3.19,0,2.208,2.208,0,0,0,0-3.151" fill="#353536"/>
        <path id="Path_2744" data-name="Path 2744" d="M118.028,1049.4a2.278,2.278,0,0,0-3.19,0,2.208,2.208,0,0,0,0,3.152,2.275,2.275,0,0,0,3.192,0,2.2,2.2,0,0,0,0-3.148" fill="#353536"/>
        <path id="Path_2745" data-name="Path 2745" d="M102.076,1033.656a2.277,2.277,0,0,0-3.19,0,2.206,2.206,0,0,0,0,3.151,2.275,2.275,0,0,0,3.193,0,2.208,2.208,0,0,0,0-3.151" fill="#353536"/>
        <path id="Path_2746" data-name="Path 2746" d="M102.076,1065.151a2.277,2.277,0,0,0-3.19,0,2.208,2.208,0,0,0,0,3.152,2.275,2.275,0,0,0,3.192,0,2.2,2.2,0,0,0,0-3.148" fill="#353536"/>
        <path id="Path_2747" data-name="Path 2747" d="M86.125,1049.4a2.278,2.278,0,0,0-3.19,0,2.208,2.208,0,0,0,0,3.152,2.277,2.277,0,0,0,3.193,0,2.206,2.206,0,0,0,0-3.149" fill="#353536"/>
        <path id="Path_2748" data-name="Path 2748" d="M133.978,1049.4a2.276,2.276,0,0,0-3.189,0,2.206,2.206,0,0,0,0,3.148,2.276,2.276,0,0,0,3.19,0,2.206,2.206,0,0,0,0-3.149" fill="#353536"/>
        <path id="Path_2749" data-name="Path 2749" d="M118.028,1065.148a2.279,2.279,0,0,0-3.192,0,2.207,2.207,0,0,0,0,3.149,2.275,2.275,0,0,0,3.19,0,2.208,2.208,0,0,0,0-3.151" fill="#353536"/>
        <path id="Path_2750" data-name="Path 2750" d="M70.171,1049.4a2.276,2.276,0,0,0-3.189,0,2.2,2.2,0,0,0,0,3.148,2.276,2.276,0,0,0,3.19,0,2.206,2.206,0,0,0,0-3.149" fill="#353536"/>
        <path id="Path_2751" data-name="Path 2751" d="M86.123,1065.152a2.277,2.277,0,0,0-3.19,0,2.206,2.206,0,0,0,0,3.149,2.274,2.274,0,0,0,3.189,0,2.2,2.2,0,0,0,0-3.148" fill="#353536"/>
        <path id="Path_2752" data-name="Path 2752" d="M102.073,1080.9a2.275,2.275,0,0,0-3.189,0,2.206,2.206,0,0,0,0,3.148,2.276,2.276,0,0,0,3.19,0,2.206,2.206,0,0,0,0-3.149" fill="#353536"/>
      </g>
    </g>
    <g id="Group_498" data-name="Group 498">
      <g id="Group_497" data-name="Group 497" clip-path="url(#clip-path-26)">
        <path id="Path_2753" data-name="Path 2753" d="M71.239,987.47a2.275,2.275,0,0,0-3.189,0,2.2,2.2,0,0,0,0,3.148,2.276,2.276,0,0,0,3.19,0,2.206,2.206,0,0,0,0-3.149" fill="#353536"/>
        <path id="Path_2754" data-name="Path 2754" d="M87.19,1003.217a2.277,2.277,0,0,0-3.19,0,2.206,2.206,0,0,0,0,3.149,2.274,2.274,0,0,0,3.189,0,2.2,2.2,0,0,0,0-3.148" fill="#353536"/>
        <path id="Path_2755" data-name="Path 2755" d="M55.289,1003.214a2.279,2.279,0,0,0-3.192,0,2.207,2.207,0,0,0,0,3.149,2.276,2.276,0,0,0,3.19,0,2.21,2.21,0,0,0,0-3.152" fill="#353536"/>
        <path id="Path_2756" data-name="Path 2756" d="M71.24,1018.962a2.281,2.281,0,0,0-3.193,0,2.208,2.208,0,0,0,0,3.149,2.276,2.276,0,0,0,3.19,0,2.208,2.208,0,0,0,0-3.151" fill="#353536"/>
        <path id="Path_2757" data-name="Path 2757" d="M87.19,1018.962a2.277,2.277,0,0,0-3.19,0,2.208,2.208,0,0,0,0,3.152,2.275,2.275,0,0,0,3.192,0,2.2,2.2,0,0,0,0-3.148" fill="#353536"/>
        <path id="Path_2758" data-name="Path 2758" d="M71.239,1003.215a2.277,2.277,0,0,0-3.19,0,2.208,2.208,0,0,0,0,3.152,2.277,2.277,0,0,0,3.193,0,2.206,2.206,0,0,0,0-3.149" fill="#353536"/>
        <path id="Path_2759" data-name="Path 2759" d="M71.239,1034.709a2.277,2.277,0,0,0-3.19,0,2.208,2.208,0,0,0,0,3.152,2.275,2.275,0,0,0,3.192,0,2.2,2.2,0,0,0,0-3.148" fill="#353536"/>
        <path id="Path_2760" data-name="Path 2760" d="M55.287,1018.962a2.277,2.277,0,0,0-3.19,0,2.208,2.208,0,0,0,0,3.152,2.277,2.277,0,0,0,3.193,0,2.206,2.206,0,0,0,0-3.149" fill="#353536"/>
        <path id="Path_2761" data-name="Path 2761" d="M103.141,1018.962a2.275,2.275,0,0,0-3.189,0,2.206,2.206,0,0,0,0,3.148,2.276,2.276,0,0,0,3.19,0,2.206,2.206,0,0,0,0-3.149" fill="#353536"/>
        <path id="Path_2762" data-name="Path 2762" d="M87.19,1034.708a2.279,2.279,0,0,0-3.192,0,2.207,2.207,0,0,0,0,3.149,2.275,2.275,0,0,0,3.19,0,2.208,2.208,0,0,0,0-3.151" fill="#353536"/>
        <path id="Path_2763" data-name="Path 2763" d="M39.334,1018.964a2.276,2.276,0,0,0-3.189,0,2.2,2.2,0,0,0,0,3.148,2.276,2.276,0,0,0,3.19,0,2.206,2.206,0,0,0,0-3.149" fill="#353536"/>
        <path id="Path_2764" data-name="Path 2764" d="M55.286,1034.711a2.277,2.277,0,0,0-3.19,0,2.206,2.206,0,0,0,0,3.149,2.274,2.274,0,0,0,3.189,0,2.2,2.2,0,0,0,0-3.148" fill="#353536"/>
        <path id="Path_2765" data-name="Path 2765" d="M71.237,1050.458a2.275,2.275,0,0,0-3.189,0,2.206,2.206,0,0,0,0,3.148,2.276,2.276,0,0,0,3.19,0,2.206,2.206,0,0,0,0-3.149" fill="#353536"/>
      </g>
    </g>
    <g id="Group_500" data-name="Group 500">
      <g id="Group_499" data-name="Group 499" clip-path="url(#clip-path-27)">
        <path id="Path_2766" data-name="Path 2766" d="M40.4,957.028a2.276,2.276,0,0,0-3.189,0,2.2,2.2,0,0,0,0,3.148,2.276,2.276,0,0,0,3.19,0,2.206,2.206,0,0,0,0-3.149" fill="#353536"/>
        <path id="Path_2767" data-name="Path 2767" d="M56.353,972.775a2.277,2.277,0,0,0-3.19,0,2.206,2.206,0,0,0,0,3.149,2.274,2.274,0,0,0,3.189,0,2.2,2.2,0,0,0,0-3.148" fill="#353536"/>
        <path id="Path_2768" data-name="Path 2768" d="M24.451,972.774a2.279,2.279,0,0,0-3.192,0,2.207,2.207,0,0,0,0,3.149,2.276,2.276,0,0,0,3.19,0,2.21,2.21,0,0,0,0-3.152" fill="#353536"/>
        <path id="Path_2769" data-name="Path 2769" d="M40.4,988.521a2.281,2.281,0,0,0-3.193,0,2.206,2.206,0,0,0,0,3.149,2.274,2.274,0,0,0,3.189,0,2.209,2.209,0,0,0,0-3.151" fill="#353536"/>
        <path id="Path_2770" data-name="Path 2770" d="M56.355,988.522a2.277,2.277,0,0,0-3.19,0,2.208,2.208,0,0,0,0,3.152,2.275,2.275,0,0,0,3.192,0,2.2,2.2,0,0,0,0-3.148" fill="#353536"/>
        <path id="Path_2771" data-name="Path 2771" d="M40.4,972.774a2.277,2.277,0,0,0-3.19,0,2.208,2.208,0,0,0,0,3.152,2.277,2.277,0,0,0,3.193,0,2.206,2.206,0,0,0,0-3.149" fill="#353536"/>
        <path id="Path_2772" data-name="Path 2772" d="M40.4,1004.269a2.277,2.277,0,0,0-3.19,0,2.208,2.208,0,0,0,0,3.152,2.275,2.275,0,0,0,3.192,0,2.2,2.2,0,0,0,0-3.148" fill="#353536"/>
        <path id="Path_2773" data-name="Path 2773" d="M24.451,988.522a2.277,2.277,0,0,0-3.19,0,2.208,2.208,0,0,0,0,3.152,2.277,2.277,0,0,0,3.193,0,2.206,2.206,0,0,0,0-3.149" fill="#353536"/>
        <path id="Path_2774" data-name="Path 2774" d="M72.3,988.522a2.276,2.276,0,0,0-3.189,0,2.206,2.206,0,0,0,0,3.148,2.276,2.276,0,0,0,3.19,0,2.206,2.206,0,0,0,0-3.149" fill="#353536"/>
        <path id="Path_2775" data-name="Path 2775" d="M56.355,1004.266a2.279,2.279,0,0,0-3.192,0,2.207,2.207,0,0,0,0,3.149,2.275,2.275,0,0,0,3.19,0,2.208,2.208,0,0,0,0-3.151" fill="#353536"/>
        <path id="Path_2776" data-name="Path 2776" d="M8.5,988.522a2.276,2.276,0,0,0-3.189,0,2.2,2.2,0,0,0,0,3.148,2.276,2.276,0,0,0,3.19,0,2.206,2.206,0,0,0,0-3.149" fill="#353536"/>
        <path id="Path_2777" data-name="Path 2777" d="M24.45,1004.269a2.277,2.277,0,0,0-3.19,0,2.2,2.2,0,0,0,0,3.148,2.273,2.273,0,0,0,3.189,0,2.2,2.2,0,0,0,0-3.148" fill="#353536"/>
        <path id="Path_2778" data-name="Path 2778" d="M40.4,1020.016a2.275,2.275,0,0,0-3.189,0,2.206,2.206,0,0,0,0,3.148,2.276,2.276,0,0,0,3.19,0,2.206,2.206,0,0,0,0-3.149" fill="#353536"/>
      </g>
    </g>
    <g id="Group_502" data-name="Group 502">
      <g id="Group_501" data-name="Group 501" clip-path="url(#clip-path-28)">
        <path id="Path_2780" data-name="Path 2780" d="M9.567,958.079a2.281,2.281,0,0,0-3.193,0,2.207,2.207,0,0,0,0,3.149,2.276,2.276,0,0,0,3.19,0,2.208,2.208,0,0,0,0-3.151" fill="#353536"/>
        <path id="Path_2781" data-name="Path 2781" d="M25.517,958.081a2.277,2.277,0,0,0-3.19,0,2.208,2.208,0,0,0,0,3.152,2.275,2.275,0,0,0,3.192,0,2.2,2.2,0,0,0,0-3.148" fill="#353536"/>
        <path id="Path_2782" data-name="Path 2782" d="M9.566,973.828a2.277,2.277,0,0,0-3.19,0,2.208,2.208,0,0,0,0,3.152,2.275,2.275,0,0,0,3.192,0,2.2,2.2,0,0,0,0-3.148" fill="#353536"/>
        <path id="Path_2783" data-name="Path 2783" d="M41.467,958.081a2.275,2.275,0,0,0-3.189,0,2.206,2.206,0,0,0,0,3.148,2.276,2.276,0,0,0,3.19,0,2.206,2.206,0,0,0,0-3.149" fill="#353536"/>
        <path id="Path_2784" data-name="Path 2784" d="M25.519,973.826a2.281,2.281,0,0,0-3.193,0,2.21,2.21,0,0,0,0,3.149,2.274,2.274,0,0,0,3.19,0,2.209,2.209,0,0,0,0-3.151" fill="#353536"/>
        <path id="Path_2785" data-name="Path 2785" d="M9.564,989.576a2.276,2.276,0,0,0-3.189,0,2.206,2.206,0,0,0,0,3.148,2.276,2.276,0,0,0,3.19,0,2.206,2.206,0,0,0,0-3.149" fill="#353536"/>
      </g>
    </g>
    <g id="Group_504" data-name="Group 504">
      <g id="Group_503" data-name="Group 503" clip-path="url(#clip-path-29)">
        <path id="Path_2787" data-name="Path 2787" d="M163.748,1139.675a2.277,2.277,0,0,0-3.19,0,2.2,2.2,0,0,0,0,3.148,2.278,2.278,0,0,0,3.192,0,2.209,2.209,0,0,0,0-3.149" fill="#353536"/>
        <path id="Path_2788" data-name="Path 2788" d="M147.8,1155.419a2.281,2.281,0,0,0-3.192,0,2.207,2.207,0,0,0,0,3.149,2.275,2.275,0,0,0,3.19,0,2.21,2.21,0,0,0,0-3.152" fill="#353536"/>
        <path id="Path_2789" data-name="Path 2789" d="M163.748,1155.42a2.277,2.277,0,0,0-3.19,0,2.208,2.208,0,0,0,0,3.152,2.277,2.277,0,0,0,3.193,0,2.206,2.206,0,0,0,0-3.149" fill="#353536"/>
      </g>
    </g>
    <g id="Group_506" data-name="Group 506">
      <g id="Group_505" data-name="Group 505" clip-path="url(#clip-path-30)">
        <path id="Path_2791" data-name="Path 2791" d="M132.911,1109.233a2.275,2.275,0,0,0-3.189,0,2.2,2.2,0,0,0,0,3.148,2.276,2.276,0,0,0,3.19,0,2.206,2.206,0,0,0,0-3.149" fill="#353536"/>
        <path id="Path_2792" data-name="Path 2792" d="M148.862,1124.982a2.277,2.277,0,0,0-3.19,0,2.206,2.206,0,0,0,0,3.149,2.274,2.274,0,0,0,3.189,0,2.2,2.2,0,0,0,0-3.148" fill="#353536"/>
        <path id="Path_2793" data-name="Path 2793" d="M116.96,1124.979a2.279,2.279,0,0,0-3.192,0,2.207,2.207,0,0,0,0,3.149,2.276,2.276,0,0,0,3.19,0,2.21,2.21,0,0,0,0-3.152" fill="#353536"/>
        <path id="Path_2794" data-name="Path 2794" d="M132.912,1140.726a2.281,2.281,0,0,0-3.193,0,2.208,2.208,0,0,0,0,3.149,2.276,2.276,0,0,0,3.19,0,2.208,2.208,0,0,0,0-3.151" fill="#353536"/>
        <path id="Path_2795" data-name="Path 2795" d="M148.864,1140.727a2.277,2.277,0,0,0-3.19,0,2.208,2.208,0,0,0,0,3.152,2.275,2.275,0,0,0,3.192,0,2.2,2.2,0,0,0,0-3.148" fill="#353536"/>
        <path id="Path_2796" data-name="Path 2796" d="M132.912,1124.98a2.277,2.277,0,0,0-3.19,0,2.208,2.208,0,0,0,0,3.152,2.277,2.277,0,0,0,3.193,0,2.206,2.206,0,0,0,0-3.149" fill="#353536"/>
        <path id="Path_2797" data-name="Path 2797" d="M132.912,1156.474a2.278,2.278,0,0,0-3.19,0,2.208,2.208,0,0,0,0,3.152,2.275,2.275,0,0,0,3.192,0,2.2,2.2,0,0,0,0-3.148" fill="#353536"/>
        <path id="Path_2798" data-name="Path 2798" d="M116.959,1140.727a2.277,2.277,0,0,0-3.19,0,2.208,2.208,0,0,0,0,3.152,2.277,2.277,0,0,0,3.193,0,2.206,2.206,0,0,0,0-3.149" fill="#353536"/>
        <path id="Path_2799" data-name="Path 2799" d="M164.814,1140.727a2.277,2.277,0,0,0-3.19,0,2.206,2.206,0,0,0,0,3.148,2.278,2.278,0,0,0,3.192,0,2.206,2.206,0,0,0,0-3.149" fill="#353536"/>
        <path id="Path_2800" data-name="Path 2800" d="M148.864,1156.473a2.279,2.279,0,0,0-3.192,0,2.208,2.208,0,0,0,0,3.149,2.275,2.275,0,0,0,3.19,0,2.208,2.208,0,0,0,0-3.151" fill="#353536"/>
        <path id="Path_2801" data-name="Path 2801" d="M101.006,1140.729a2.275,2.275,0,0,0-3.189,0,2.2,2.2,0,0,0,0,3.148,2.276,2.276,0,0,0,3.19,0,2.206,2.206,0,0,0,0-3.149" fill="#353536"/>
        <path id="Path_2802" data-name="Path 2802" d="M116.959,1156.476a2.277,2.277,0,0,0-3.19,0,2.206,2.206,0,0,0,0,3.149,2.274,2.274,0,0,0,3.189,0,2.2,2.2,0,0,0,0-3.148" fill="#353536"/>
      </g>
    </g>
    <g id="Group_508" data-name="Group 508">
      <g id="Group_507" data-name="Group 507" clip-path="url(#clip-path-31)">
        <path id="Path_2804" data-name="Path 2804" d="M102.073,1078.793a2.275,2.275,0,0,0-3.189,0,2.2,2.2,0,0,0,0,3.148,2.276,2.276,0,0,0,3.19,0,2.206,2.206,0,0,0,0-3.149" fill="#353536"/>
        <path id="Path_2805" data-name="Path 2805" d="M118.026,1094.54a2.277,2.277,0,0,0-3.19,0,2.206,2.206,0,0,0,0,3.149,2.274,2.274,0,0,0,3.189,0,2.2,2.2,0,0,0,0-3.148" fill="#353536"/>
        <path id="Path_2806" data-name="Path 2806" d="M86.125,1094.537a2.279,2.279,0,0,0-3.192,0,2.207,2.207,0,0,0,0,3.149,2.276,2.276,0,0,0,3.19,0,2.21,2.21,0,0,0,0-3.152" fill="#353536"/>
        <path id="Path_2807" data-name="Path 2807" d="M102.076,1110.286a2.281,2.281,0,0,0-3.193,0,2.207,2.207,0,0,0,0,3.149,2.276,2.276,0,0,0,3.19,0,2.208,2.208,0,0,0,0-3.151" fill="#353536"/>
        <path id="Path_2808" data-name="Path 2808" d="M118.026,1110.286a2.278,2.278,0,0,0-3.19,0,2.208,2.208,0,0,0,0,3.152,2.275,2.275,0,0,0,3.192,0,2.2,2.2,0,0,0,0-3.148" fill="#353536"/>
        <path id="Path_2809" data-name="Path 2809" d="M102.075,1094.539a2.277,2.277,0,0,0-3.19,0,2.208,2.208,0,0,0,0,3.152,2.277,2.277,0,0,0,3.193,0,2.206,2.206,0,0,0,0-3.149" fill="#353536"/>
        <path id="Path_2810" data-name="Path 2810" d="M102.075,1126.032a2.277,2.277,0,0,0-3.19,0,2.208,2.208,0,0,0,0,3.152,2.275,2.275,0,0,0,3.192,0,2.2,2.2,0,0,0,0-3.148" fill="#353536"/>
        <path id="Path_2811" data-name="Path 2811" d="M86.123,1110.286a2.278,2.278,0,0,0-3.19,0,2.208,2.208,0,0,0,0,3.152,2.277,2.277,0,0,0,3.193,0,2.206,2.206,0,0,0,0-3.149" fill="#353536"/>
        <path id="Path_2812" data-name="Path 2812" d="M133.976,1110.286a2.276,2.276,0,0,0-3.189,0,2.206,2.206,0,0,0,0,3.148,2.276,2.276,0,0,0,3.19,0,2.206,2.206,0,0,0,0-3.149" fill="#353536"/>
        <path id="Path_2813" data-name="Path 2813" d="M118.026,1126.031a2.279,2.279,0,0,0-3.192,0,2.207,2.207,0,0,0,0,3.149,2.275,2.275,0,0,0,3.19,0,2.208,2.208,0,0,0,0-3.151" fill="#353536"/>
        <path id="Path_2814" data-name="Path 2814" d="M70.17,1110.287a2.275,2.275,0,0,0-3.189,0,2.2,2.2,0,0,0,0,3.148,2.276,2.276,0,0,0,3.19,0,2.206,2.206,0,0,0,0-3.149" fill="#353536"/>
        <path id="Path_2815" data-name="Path 2815" d="M86.122,1126.034a2.277,2.277,0,0,0-3.19,0,2.206,2.206,0,0,0,0,3.149,2.274,2.274,0,0,0,3.189,0,2.2,2.2,0,0,0,0-3.148" fill="#353536"/>
        <path id="Path_2816" data-name="Path 2816" d="M102.073,1141.781a2.275,2.275,0,0,0-3.189,0,2.206,2.206,0,0,0,0,3.148,2.276,2.276,0,0,0,3.19,0,2.206,2.206,0,0,0,0-3.149" fill="#353536"/>
      </g>
    </g>
    <g id="Group_510" data-name="Group 510">
      <g id="Group_509" data-name="Group 509" clip-path="url(#clip-path-32)">
        <path id="Path_2817" data-name="Path 2817" d="M71.237,1048.352a2.276,2.276,0,0,0-3.189,0,2.2,2.2,0,0,0,0,3.148,2.276,2.276,0,0,0,3.19,0,2.206,2.206,0,0,0,0-3.149" fill="#353536"/>
        <path id="Path_2818" data-name="Path 2818" d="M87.189,1064.1a2.277,2.277,0,0,0-3.19,0,2.206,2.206,0,0,0,0,3.149,2.274,2.274,0,0,0,3.189,0,2.2,2.2,0,0,0,0-3.148" fill="#353536"/>
        <path id="Path_2819" data-name="Path 2819" d="M55.287,1064.1a2.279,2.279,0,0,0-3.192,0,2.207,2.207,0,0,0,0,3.149,2.276,2.276,0,0,0,3.19,0,2.21,2.21,0,0,0,0-3.152" fill="#353536"/>
        <path id="Path_2820" data-name="Path 2820" d="M71.239,1079.844a2.281,2.281,0,0,0-3.193,0,2.208,2.208,0,0,0,0,3.149,2.276,2.276,0,0,0,3.19,0,2.208,2.208,0,0,0,0-3.151" fill="#353536"/>
        <path id="Path_2821" data-name="Path 2821" d="M87.19,1079.845a2.277,2.277,0,0,0-3.19,0A2.208,2.208,0,0,0,84,1083a2.275,2.275,0,0,0,3.192,0,2.2,2.2,0,0,0,0-3.148" fill="#353536"/>
        <path id="Path_2822" data-name="Path 2822" d="M71.239,1064.1a2.277,2.277,0,0,0-3.19,0,2.208,2.208,0,0,0,0,3.152,2.277,2.277,0,0,0,3.193,0,2.206,2.206,0,0,0,0-3.149" fill="#353536"/>
        <path id="Path_2823" data-name="Path 2823" d="M71.239,1095.592a2.277,2.277,0,0,0-3.19,0,2.208,2.208,0,0,0,0,3.152,2.275,2.275,0,0,0,3.192,0,2.2,2.2,0,0,0,0-3.148" fill="#353536"/>
        <path id="Path_2824" data-name="Path 2824" d="M55.286,1079.845a2.277,2.277,0,0,0-3.19,0,2.208,2.208,0,0,0,0,3.152,2.277,2.277,0,0,0,3.193,0,2.206,2.206,0,0,0,0-3.149" fill="#353536"/>
        <path id="Path_2825" data-name="Path 2825" d="M103.139,1079.845a2.275,2.275,0,0,0-3.189,0,2.206,2.206,0,0,0,0,3.148,2.276,2.276,0,0,0,3.19,0,2.206,2.206,0,0,0,0-3.149" fill="#353536"/>
        <path id="Path_2826" data-name="Path 2826" d="M87.19,1095.591a2.279,2.279,0,0,0-3.192,0,2.208,2.208,0,0,0,0,3.149,2.275,2.275,0,0,0,3.19,0,2.208,2.208,0,0,0,0-3.151" fill="#353536"/>
        <path id="Path_2827" data-name="Path 2827" d="M39.333,1079.847a2.275,2.275,0,0,0-3.189,0,2.2,2.2,0,0,0,0,3.148,2.276,2.276,0,0,0,3.19,0,2.206,2.206,0,0,0,0-3.149" fill="#353536"/>
        <path id="Path_2828" data-name="Path 2828" d="M55.286,1095.594a2.277,2.277,0,0,0-3.19,0,2.206,2.206,0,0,0,0,3.149,2.274,2.274,0,0,0,3.189,0,2.2,2.2,0,0,0,0-3.148" fill="#353536"/>
        <path id="Path_2829" data-name="Path 2829" d="M71.236,1111.339a2.275,2.275,0,0,0-3.189,0,2.206,2.206,0,0,0,0,3.148,2.276,2.276,0,0,0,3.19,0,2.206,2.206,0,0,0,0-3.149" fill="#353536"/>
      </g>
    </g>
    <g id="Group_512" data-name="Group 512">
      <g id="Group_511" data-name="Group 511" clip-path="url(#clip-path-33)">
        <path id="Path_2830" data-name="Path 2830" d="M40.4,1017.912a2.275,2.275,0,0,0-3.189,0,2.2,2.2,0,0,0,0,3.148,2.276,2.276,0,0,0,3.19,0,2.206,2.206,0,0,0,0-3.149" fill="#353536"/>
        <path id="Path_2831" data-name="Path 2831" d="M56.353,1033.659a2.277,2.277,0,0,0-3.19,0,2.207,2.207,0,0,0,0,3.149,2.276,2.276,0,0,0,3.19,0,2.2,2.2,0,0,0,0-3.147" fill="#353536"/>
        <path id="Path_2832" data-name="Path 2832" d="M24.451,1033.656a2.279,2.279,0,0,0-3.192,0,2.207,2.207,0,0,0,0,3.149,2.276,2.276,0,0,0,3.19,0,2.21,2.21,0,0,0,0-3.152" fill="#353536"/>
        <path id="Path_2833" data-name="Path 2833" d="M40.4,1049.4a2.281,2.281,0,0,0-3.193,0,2.207,2.207,0,0,0,0,3.149,2.276,2.276,0,0,0,3.19,0,2.208,2.208,0,0,0,0-3.151" fill="#353536"/>
        <path id="Path_2834" data-name="Path 2834" d="M56.353,1049.4a2.278,2.278,0,0,0-3.19,0,2.208,2.208,0,0,0,0,3.152,2.275,2.275,0,0,0,3.192,0,2.2,2.2,0,0,0,0-3.148" fill="#353536"/>
        <path id="Path_2835" data-name="Path 2835" d="M40.4,1033.657a2.277,2.277,0,0,0-3.19,0,2.208,2.208,0,0,0,0,3.152,2.277,2.277,0,0,0,3.193,0,2.206,2.206,0,0,0,0-3.149" fill="#353536"/>
        <path id="Path_2836" data-name="Path 2836" d="M40.4,1065.151a2.277,2.277,0,0,0-3.19,0,2.21,2.21,0,0,0,0,3.154,2.275,2.275,0,0,0,3.192,0,2.206,2.206,0,0,0,0-3.149" fill="#353536"/>
        <path id="Path_2837" data-name="Path 2837" d="M24.45,1049.4a2.278,2.278,0,0,0-3.19,0,2.208,2.208,0,0,0,0,3.152,2.277,2.277,0,0,0,3.193,0,2.206,2.206,0,0,0,0-3.149" fill="#353536"/>
        <path id="Path_2838" data-name="Path 2838" d="M72.3,1049.4a2.276,2.276,0,0,0-3.189,0,2.206,2.206,0,0,0,0,3.148,2.276,2.276,0,0,0,3.19,0,2.206,2.206,0,0,0,0-3.149" fill="#353536"/>
        <path id="Path_2839" data-name="Path 2839" d="M56.353,1065.149a2.279,2.279,0,0,0-3.192,0,2.207,2.207,0,0,0,0,3.149,2.274,2.274,0,0,0,3.19,0,2.208,2.208,0,0,0,0-3.151" fill="#353536"/>
        <path id="Path_2840" data-name="Path 2840" d="M8.5,1049.405a2.275,2.275,0,0,0-3.189,0,2.2,2.2,0,0,0,0,3.148,2.276,2.276,0,0,0,3.19,0,2.206,2.206,0,0,0,0-3.149" fill="#353536"/>
        <path id="Path_2841" data-name="Path 2841" d="M24.448,1065.152a2.277,2.277,0,0,0-3.19,0,2.206,2.206,0,0,0,0,3.149,2.274,2.274,0,0,0,3.189,0,2.2,2.2,0,0,0,0-3.148" fill="#353536"/>
        <path id="Path_2842" data-name="Path 2842" d="M40.4,1080.9a2.275,2.275,0,0,0-3.189,0,2.206,2.206,0,0,0,0,3.148,2.276,2.276,0,0,0,3.19,0,2.206,2.206,0,0,0,0-3.149" fill="#353536"/>
      </g>
    </g>
    <g id="Group_514" data-name="Group 514">
      <g id="Group_513" data-name="Group 513" clip-path="url(#clip-path-34)">
        <path id="Path_2843" data-name="Path 2843" d="M9.564,987.47a2.275,2.275,0,0,0-3.189,0,2.2,2.2,0,0,0,0,3.148,2.276,2.276,0,0,0,3.19,0,2.206,2.206,0,0,0,0-3.149" fill="#353536"/>
        <path id="Path_2844" data-name="Path 2844" d="M25.516,1003.217a2.277,2.277,0,0,0-3.19,0,2.206,2.206,0,0,0,0,3.149,2.274,2.274,0,0,0,3.189,0,2.2,2.2,0,0,0,0-3.148" fill="#353536"/>
        <path id="Path_2845" data-name="Path 2845" d="M9.566,1018.962a2.281,2.281,0,0,0-3.193,0,2.208,2.208,0,0,0,0,3.149,2.276,2.276,0,0,0,3.19,0,2.208,2.208,0,0,0,0-3.151" fill="#353536"/>
        <path id="Path_2846" data-name="Path 2846" d="M25.517,1018.964a2.277,2.277,0,0,0-3.19,0,2.208,2.208,0,0,0,0,3.152,2.275,2.275,0,0,0,3.192,0,2.2,2.2,0,0,0,0-3.148" fill="#353536"/>
        <path id="Path_2847" data-name="Path 2847" d="M9.566,1003.217a2.279,2.279,0,0,0-3.192,0,2.211,2.211,0,0,0,0,3.152,2.277,2.277,0,0,0,3.193,0,2.207,2.207,0,0,0,0-3.149" fill="#353536"/>
        <path id="Path_2848" data-name="Path 2848" d="M9.566,1034.711a2.279,2.279,0,0,0-3.192,0,2.211,2.211,0,0,0,0,3.152,2.277,2.277,0,0,0,3.193,0,2.207,2.207,0,0,0,0-3.148" fill="#353536"/>
        <path id="Path_2849" data-name="Path 2849" d="M41.466,1018.964a2.276,2.276,0,0,0-3.189,0,2.206,2.206,0,0,0,0,3.148,2.276,2.276,0,0,0,3.19,0,2.206,2.206,0,0,0,0-3.149" fill="#353536"/>
        <path id="Path_2850" data-name="Path 2850" d="M25.517,1034.708a2.279,2.279,0,0,0-3.192,0,2.207,2.207,0,0,0,0,3.149,2.275,2.275,0,0,0,3.19,0,2.21,2.21,0,0,0,0-3.152" fill="#353536"/>
        <path id="Path_2851" data-name="Path 2851" d="M9.563,1050.458a2.275,2.275,0,0,0-3.189,0,2.206,2.206,0,0,0,0,3.148,2.276,2.276,0,0,0,3.19,0,2.206,2.206,0,0,0,0-3.149" fill="#353536"/>
      </g>
    </g>
    <g id="Group_520" data-name="Group 520">
      <g id="Group_519" data-name="Group 519" clip-path="url(#clip-path-35)">
        <g id="Group_518" data-name="Group 518">
          <g id="Group_517" data-name="Group 517" clip-path="url(#clip-path-13)">
            <g id="Group_516" data-name="Group 516">
              <g id="Group_515" data-name="Group 515" clip-path="url(#clip-path-14)">
                <path id="Path_2853" data-name="Path 2853" d="M10.63,988.522a2.276,2.276,0,0,0-3.189,0,2.206,2.206,0,0,0,0,3.148,2.276,2.276,0,0,0,3.19,0,2.206,2.206,0,0,0,0-3.149" fill="#353536"/>
              </g>
            </g>
          </g>
        </g>
      </g>
    </g>
    <g id="Group_522" data-name="Group 522">
      <g id="Group_521" data-name="Group 521" clip-path="url(#clip-path-38)">
        <path id="Path_2856" data-name="Path 2856" d="M102.073,1139.675a2.275,2.275,0,0,0-3.189,0,2.2,2.2,0,0,0,0,3.148,2.276,2.276,0,0,0,3.19,0,2.206,2.206,0,0,0,0-3.149" fill="#353536"/>
        <path id="Path_2857" data-name="Path 2857" d="M118.025,1155.423a2.278,2.278,0,0,0-3.19,0,2.206,2.206,0,0,0,0,3.149,2.274,2.274,0,0,0,3.189,0,2.2,2.2,0,0,0,0-3.148" fill="#353536"/>
        <path id="Path_2858" data-name="Path 2858" d="M102.073,1155.422a2.277,2.277,0,0,0-3.19,0,2.208,2.208,0,0,0,0,3.152,2.277,2.277,0,0,0,3.193,0,2.206,2.206,0,0,0,0-3.149" fill="#353536"/>
      </g>
    </g>
    <g id="Group_524" data-name="Group 524">
      <g id="Group_523" data-name="Group 523" clip-path="url(#clip-path-39)">
        <path id="Path_2860" data-name="Path 2860" d="M71.236,1109.235a2.275,2.275,0,0,0-3.189,0,2.2,2.2,0,0,0,0,3.148,2.276,2.276,0,0,0,3.19,0,2.206,2.206,0,0,0,0-3.149" fill="#353536"/>
        <path id="Path_2861" data-name="Path 2861" d="M87.187,1124.982a2.277,2.277,0,0,0-3.19,0,2.206,2.206,0,0,0,0,3.149,2.274,2.274,0,0,0,3.189,0,2.2,2.2,0,0,0,0-3.148" fill="#353536"/>
        <path id="Path_2862" data-name="Path 2862" d="M55.287,1124.98a2.279,2.279,0,0,0-3.192,0,2.208,2.208,0,0,0,0,3.149,2.274,2.274,0,0,0,3.189,0,2.211,2.211,0,0,0,0-3.152" fill="#353536"/>
        <path id="Path_2863" data-name="Path 2863" d="M71.239,1140.727a2.281,2.281,0,0,0-3.193,0,2.207,2.207,0,0,0,0,3.149,2.276,2.276,0,0,0,3.19,0,2.208,2.208,0,0,0,0-3.151" fill="#353536"/>
        <path id="Path_2864" data-name="Path 2864" d="M87.189,1140.729a2.277,2.277,0,0,0-3.19,0,2.208,2.208,0,0,0,0,3.152,2.275,2.275,0,0,0,3.192,0,2.2,2.2,0,0,0,0-3.148" fill="#353536"/>
        <path id="Path_2865" data-name="Path 2865" d="M71.237,1124.982a2.277,2.277,0,0,0-3.19,0,2.208,2.208,0,0,0,0,3.152,2.277,2.277,0,0,0,3.193,0,2.206,2.206,0,0,0,0-3.149" fill="#353536"/>
        <path id="Path_2866" data-name="Path 2866" d="M55.286,1140.729a2.277,2.277,0,0,0-3.19,0,2.208,2.208,0,0,0,0,3.152,2.277,2.277,0,0,0,3.193,0,2.206,2.206,0,0,0,0-3.149" fill="#353536"/>
        <path id="Path_2867" data-name="Path 2867" d="M103.139,1140.729a2.275,2.275,0,0,0-3.189,0,2.206,2.206,0,0,0,0,3.148,2.276,2.276,0,0,0,3.19,0,2.206,2.206,0,0,0,0-3.149" fill="#353536"/>
      </g>
    </g>
    <g id="Group_526" data-name="Group 526">
      <g id="Group_525" data-name="Group 525" clip-path="url(#clip-path-40)">
        <path id="Path_2869" data-name="Path 2869" d="M40.4,1078.793a2.275,2.275,0,0,0-3.189,0,2.206,2.206,0,0,0,0,3.149,2.276,2.276,0,0,0,3.19,0,2.208,2.208,0,0,0,0-3.151" fill="#353536"/>
        <path id="Path_2870" data-name="Path 2870" d="M56.352,1094.542a2.277,2.277,0,0,0-3.19,0,2.206,2.206,0,0,0,0,3.149,2.274,2.274,0,0,0,3.189,0,2.2,2.2,0,0,0,0-3.148" fill="#353536"/>
        <path id="Path_2871" data-name="Path 2871" d="M24.45,1094.539a2.279,2.279,0,0,0-3.192,0,2.207,2.207,0,0,0,0,3.149,2.276,2.276,0,0,0,3.19,0,2.21,2.21,0,0,0,0-3.152" fill="#353536"/>
        <path id="Path_2872" data-name="Path 2872" d="M40.4,1110.286a2.281,2.281,0,0,0-3.193,0,2.207,2.207,0,0,0,0,3.149,2.276,2.276,0,0,0,3.19,0,2.208,2.208,0,0,0,0-3.151" fill="#353536"/>
        <path id="Path_2873" data-name="Path 2873" d="M56.353,1110.287a2.277,2.277,0,0,0-3.19,0,2.207,2.207,0,0,0,0,3.152,2.275,2.275,0,0,0,3.192,0,2.2,2.2,0,0,0,0-3.148" fill="#353536"/>
        <path id="Path_2874" data-name="Path 2874" d="M40.4,1094.54a2.277,2.277,0,0,0-3.19,0,2.208,2.208,0,0,0,0,3.152,2.277,2.277,0,0,0,3.193,0,2.206,2.206,0,0,0,0-3.149" fill="#353536"/>
        <path id="Path_2875" data-name="Path 2875" d="M40.4,1126.034a2.277,2.277,0,0,0-3.19,0,2.208,2.208,0,0,0,0,3.152,2.275,2.275,0,0,0,3.192,0,2.2,2.2,0,0,0,0-3.148" fill="#353536"/>
        <path id="Path_2876" data-name="Path 2876" d="M24.448,1110.287a2.277,2.277,0,0,0-3.19,0,2.208,2.208,0,0,0,0,3.152,2.277,2.277,0,0,0,3.193,0,2.206,2.206,0,0,0,0-3.149" fill="#353536"/>
        <path id="Path_2877" data-name="Path 2877" d="M72.3,1110.287a2.275,2.275,0,0,0-3.189,0,2.206,2.206,0,0,0,0,3.148,2.276,2.276,0,0,0,3.19,0,2.206,2.206,0,0,0,0-3.149" fill="#353536"/>
        <path id="Path_2878" data-name="Path 2878" d="M56.353,1126.032a2.279,2.279,0,0,0-3.192,0,2.207,2.207,0,0,0,0,3.149,2.275,2.275,0,0,0,3.19,0,2.208,2.208,0,0,0,0-3.151" fill="#353536"/>
        <path id="Path_2879" data-name="Path 2879" d="M24.447,1126.035a2.277,2.277,0,0,0-3.19,0,2.206,2.206,0,0,0,0,3.149,2.274,2.274,0,0,0,3.189,0,2.2,2.2,0,0,0,0-3.148" fill="#353536"/>
      </g>
    </g>
    <g id="Group_528" data-name="Group 528">
      <g id="Group_527" data-name="Group 527" clip-path="url(#clip-path-41)">
        <path id="Path_2881" data-name="Path 2881" d="M9.563,1048.353a2.276,2.276,0,0,0-3.189,0,2.2,2.2,0,0,0,0,3.148,2.276,2.276,0,0,0,3.19,0,2.206,2.206,0,0,0,0-3.149" fill="#353536"/>
        <path id="Path_2882" data-name="Path 2882" d="M25.514,1064.1a2.277,2.277,0,0,0-3.19,0,2.206,2.206,0,0,0,0,3.149,2.274,2.274,0,0,0,3.189,0,2.2,2.2,0,0,0,0-3.148" fill="#353536"/>
        <path id="Path_2883" data-name="Path 2883" d="M9.566,1079.845a2.281,2.281,0,0,0-3.193,0,2.208,2.208,0,0,0,0,3.149,2.276,2.276,0,0,0,3.19,0,2.208,2.208,0,0,0,0-3.151" fill="#353536"/>
        <path id="Path_2884" data-name="Path 2884" d="M25.516,1079.847a2.277,2.277,0,0,0-3.19,0,2.208,2.208,0,0,0,0,3.152,2.275,2.275,0,0,0,3.192,0,2.2,2.2,0,0,0,0-3.148" fill="#353536"/>
        <path id="Path_2885" data-name="Path 2885" d="M9.564,1064.1a2.277,2.277,0,0,0-3.19,0,2.21,2.21,0,0,0,0,3.153,2.28,2.28,0,0,0,3.193,0,2.208,2.208,0,0,0,0-3.151" fill="#353536"/>
        <path id="Path_2886" data-name="Path 2886" d="M9.564,1095.594a2.277,2.277,0,0,0-3.19,0,2.209,2.209,0,0,0,0,3.152,2.275,2.275,0,0,0,3.192,0,2.2,2.2,0,0,0,0-3.148" fill="#353536"/>
        <path id="Path_2887" data-name="Path 2887" d="M41.466,1079.847a2.275,2.275,0,0,0-3.189,0,2.206,2.206,0,0,0,0,3.148,2.276,2.276,0,0,0,3.19,0,2.206,2.206,0,0,0,0-3.149" fill="#353536"/>
        <path id="Path_2888" data-name="Path 2888" d="M25.516,1095.591a2.279,2.279,0,0,0-3.192,0,2.208,2.208,0,0,0,0,3.149,2.275,2.275,0,0,0,3.19,0,2.208,2.208,0,0,0,0-3.151" fill="#353536"/>
      </g>
    </g>
    <g id="Group_530" data-name="Group 530">
      <g id="Group_529" data-name="Group 529" clip-path="url(#clip-path-42)">
        <path id="Path_2890" data-name="Path 2890" d="M10.628,1049.405a2.275,2.275,0,0,0-3.189,0,2.206,2.206,0,0,0,0,3.148,2.276,2.276,0,0,0,3.19,0,2.206,2.206,0,0,0,0-3.149" fill="#353536"/>
      </g>
    </g>
  </g>
</svg>
